{"accessors":[{"bufferView":0,"componentType":5121,"count":6,"max":[3],"min":[0],"type":"SCALAR"},{"bufferView":1,"componentType":5126,"count":4,"max":[0.4985119104385376,0.0,0.5],"min":[-0.4985119104385376,0.0,-0.5],"type":"VEC3"},{"bufferView":2,"componentType":5126,"count":4,"max":[0.0,1.0,-0.0],"min":[0.0,1.0,-0.0],"type":"VEC3"},{"bufferView":3,"componentType":5126,"count":4,"max":[1.0,1.0],"min":[0.0,0.0],"type":"VEC2"},{"bufferView":4,"componentType":5121,"count":6,"max":[3],"min":[0],"type":"SCALAR"},{"bufferView":5,"componentType":5126,"count":4,"max":[0.4985119104385376,0.0,0.5],"min":[-0.4985119104385376,0.0,-0.5],"type":"VEC3"},{"bufferView":6,"componentType":5126,"count":4,"max":[0.0,1.0,-0.0],"min":[0.0,1.0,-0.0],"type":"VEC3"},{"bufferView":7,"componentType":5126,"count":4,"max":[1.0,1.0],"min":[0.0,0.0],"type":"VEC2"},{"bufferView":8,"componentType":5121,"count":282,"max":[159],"min":[0],"type":"SCALAR"},{"bufferView":9,"componentType":5126,"count":160,"max":[1.0,2.5821797847747803,1.0],"min":[-1.0,1.0689820051193237,-1.0],"type":"VEC3"},{"bufferView":10,"componentType":5126,"count":160,"max":[0.9987205266952515,0.0,0.9987205266952515],"min":[-0.9987205266952515,-1.0,-0.9987205266952515],"type":"VEC3"},{"bufferView":11,"componentType":5126,"count":160,"max":[0.49000000953674316,0.9900000095367432],"min":[0.01000000536441803,0.5099999904632568],"type":"VEC2"},{"bufferView":12,"componentType":5121,"count":372,"max":[191],"min":[0],"type":"SCALAR"},{"bufferView":13,"componentType":5126,"count":192,"max":[1.0,1.7027931213378906,1.0],"min":[-1.0,-2.98218035697937,-1.0],"type":"VEC3"},{"bufferView":14,"componentType":5126,"count":192,"max":[0.9987205266952515,1.0,0.9987205266952515],"min":[-0.9987205266952515,-1.0,-0.9987205266952515],"type":"VEC3"},{"bufferView":15,"componentType":5126,"count":192,"max":[1.0,0.9900000095367432],"min":[0.0,0.0],"type":"VEC2"},{"bufferView":16,"componentType":5121,"count":90,"max":[31],"min":[0],"type":"SCALAR"},{"bufferView":17,"componentType":5126,"count":32,"max":[1.0,0.08217978477478027,1.0],"min":[-1.0,-0.08217978477478027,-1.0],"type":"VEC3"},{"bufferView":18,"componentType":5126,"count":32,"max":[0.0,1.0,-0.0],"min":[0.0,1.0,-0.0],"type":"VEC3"},{"bufferView":19,"componentType":5126,"count":32,"max":[0.49000000953674316,0.9900000095367432],"min":[0.01000000536441803,0.5099999904632568],"type":"VEC2"},{"bufferView":20,"componentType":5123,"count":8640,"max":[5759],"min":[0],"type":"SCALAR"},{"bufferView":21,"componentType":5126,"count":5760,"max":[0.9126731753349304,0.9154303073883057,0.9066662192344666],"min":[-0.9126732349395752,-0.9154304265975952,-0.9066662788391113],"type":"VEC3"},{"bufferView":22,"componentType":5126,"count":5760,"max":[0.993778645992279,0.9979906678199768,0.9973236322402954],"min":[-0.9937788844108582,-0.9979906678199768,-0.997323751449585],"type":"VEC3"},{"bufferView":23,"componentType":5126,"count":5760,"max":[0.9816920161247253,1.0],"min":[0.018308065831661224,0.527617871761322],"type":"VEC2"},{"bufferView":24,"componentType":5121,"count":6,"max":[3],"min":[0],"type":"SCALAR"},{"bufferView":25,"componentType":5126,"count":4,"max":[0.32563209533691406,9.247179910687464e-09,1.25],"min":[-1.0,-9.247179910687464e-09,-1.25],"type":"VEC3"},{"bufferView":26,"componentType":5126,"count":4,"max":[0.0,1.0,-0.0],"min":[0.0,1.0,-0.0],"type":"VEC3"},{"bufferView":27,"componentType":5126,"count":4,"max":[1.0,1.0],"min":[0.0,0.0],"type":"VEC2"},{"bufferView":28,"componentType":5121,"count":126,"max":[43],"min":[0],"type":"SCALAR"},{"bufferView":29,"componentType":5126,"count":44,"max":[1.0,0.0,1.0],"min":[-1.0,0.0,-1.0],"type":"VEC3"},{"bufferView":30,"componentType":5126,"count":44,"max":[0.0,1.0,-0.0],"min":[0.0,1.0,-0.0],"type":"VEC3"},{"bufferView":31,"componentType":5126,"count":44,"max":[1.0,1.0],"min":[0.0,0.0],"type":"VEC2"},{"bufferView":32,"componentType":5123,"count":516,"max":[263],"min":[0],"type":"SCALAR"},{"bufferView":33,"componentType":5126,"count":264,"max":[1.0,0.0025000025052577257,1.0],"min":[-1.0,-0.002499999711290002,-1.0],"type":"VEC3"},{"bufferView":34,"componentType":5126,"count":264,"max":[1.0,1.0,1.0],"min":[-1.0,-1.0,-1.0],"type":"VEC3"},{"bufferView":35,"componentType":5126,"count":264,"max":[1.0,1.0],"min":[0.0,0.0],"type":"VEC2"},{"bufferView":36,"componentType":5123,"count":28104,"max":[23329],"min":[0],"type":"SCALAR"},{"bufferView":37,"componentType":5126,"count":23330,"max":[1.468185544013977,0.120069719851017,1.077531099319458],"min":[-1.4672834873199463,-1.4710947275161743,-1.0273973941802979],"type":"VEC3"},{"bufferView":38,"componentType":5126,"count":23330,"max":[0.9998997449874878,0.999978244304657,1.0],"min":[-0.9995698928833008,-0.9999800324440002,-1.0],"type":"VEC3"},{"bufferView":39,"componentType":5126,"count":23330,"max":[1.0,1.0],"min":[0.0,1.0],"type":"VEC2"},{"bufferView":40,"componentType":5123,"count":17076,"max":[14145],"min":[0],"type":"SCALAR"},{"bufferView":41,"componentType":5126,"count":14146,"max":[3.07938814163208,3.7171788215637207,0.5557469725608826],"min":[-3.3678078651428223,-2.7292771339416504,-0.36525338888168335],"type":"VEC3"},{"bufferView":42,"componentType":5126,"count":14146,"max":[0.99980628490448,0.9999751448631287,1.0],"min":[-0.9999984502792358,-0.9999160170555115,-1.0],"type":"VEC3"},{"bufferView":43,"componentType":5126,"count":14146,"max":[1.0,1.0],"min":[0.0,1.0],"type":"VEC2"},{"bufferView":44,"componentType":5123,"count":4191,"max":[4166],"min":[0],"type":"SCALAR"},{"bufferView":45,"componentType":5126,"count":4167,"max":[2.7910215854644775,3.5014920234680176,0.5557452440261841],"min":[-3.555162191390991,-2.829442024230957,-0.3652552366256714],"type":"VEC3"},{"bufferView":46,"componentType":5126,"count":4167,"max":[0.9997934699058533,0.9977433681488037,0.8987299799919128],"min":[-0.9998459815979004,-0.9977489709854126,-1.0],"type":"VEC3"},{"bufferView":47,"componentType":5126,"count":4167,"max":[1.0,1.0],"min":[0.0,1.0],"type":"VEC2"},{"bufferView":48,"componentType":5126,"count":120,"max":[4.958333492279053],"min":[0.0],"type":"SCALAR"},{"bufferView":49,"componentType":5126,"count":120,"max":[0.0,-0.27220362424850464,-2.842170943040401e-14],"min":[0.0,-0.27220362424850464,-2.842170943040401e-14],"type":"VEC3"},{"bufferView":50,"componentType":5126,"count":120,"max":[4.958333492279053],"min":[0.0],"type":"SCALAR"},{"bufferView":51,"componentType":5126,"count":120,"max":[0.7071067690849304,0.7070451378822327,6.181723932741079e-08,0.7071068286895752],"min":[-0.7071067690849304,-6.181723932741079e-08,-0.7070451974868774,-0.7071067690849304],"type":"VEC4"},{"bufferView":52,"componentType":5126,"count":120,"max":[4.958333492279053],"min":[0.0],"type":"SCALAR"},{"bufferView":53,"componentType":5126,"count":120,"max":[0.24606646597385406,0.24606646597385406,0.24606645107269287],"min":[0.24606643617153168,0.24606643617153168,0.24606645107269287],"type":"VEC3"}],"animations":[{"channels":[{"sampler":0,"target":{"node":4,"path":"translation"}},{"sampler":1,"target":{"node":4,"path":"rotation"}},{"sampler":2,"target":{"node":4,"path":"scale"}}],"extensions":{"S8S_v3d_animation":{"auto":true,"loop":"REPEAT","offset":0.0,"repeatCount":1.0,"repeatInfinite":true}},"name":"txt_F*king","samplers":[{"input":48,"interpolation":"LINEAR","output":49},{"input":50,"interpolation":"LINEAR","output":51},{"input":52,"interpolation":"LINEAR","output":53}]}],"asset":{"generator":"Verge3D for Blender v4.8.0","version":"2.0"},"bufferViews":[{"buffer":0,"byteLength":6,"byteOffset":0,"target":34963},{"buffer":0,"byteLength":48,"byteOffset":8,"target":34962},{"buffer":0,"byteLength":48,"byteOffset":56,"target":34962},{"buffer":0,"byteLength":32,"byteOffset":104,"target":34962},{"buffer":0,"byteLength":6,"byteOffset":136,"target":34963},{"buffer":0,"byteLength":48,"byteOffset":144,"target":34962},{"buffer":0,"byteLength":48,"byteOffset":192,"target":34962},{"buffer":0,"byteLength":32,"byteOffset":240,"target":34962},{"buffer":0,"byteLength":282,"byteOffset":272,"target":34963},{"buffer":0,"byteLength":1920,"byteOffset":556,"target":34962},{"buffer":0,"byteLength":1920,"byteOffset":2476,"target":34962},{"buffer":0,"byteLength":1280,"byteOffset":4396,"target":34962},{"buffer":0,"byteLength":372,"byteOffset":5676,"target":34963},{"buffer":0,"byteLength":2304,"byteOffset":6048,"target":34962},{"buffer":0,"byteLength":2304,"byteOffset":8352,"target":34962},{"buffer":0,"byteLength":1536,"byteOffset":10656,"target":34962},{"buffer":0,"byteLength":90,"byteOffset":12192,"target":34963},{"buffer":0,"byteLength":384,"byteOffset":12284,"target":34962},{"buffer":0,"byteLength":384,"byteOffset":12668,"target":34962},{"buffer":0,"byteLength":256,"byteOffset":13052,"target":34962},{"buffer":0,"byteLength":17280,"byteOffset":13308,"target":34963},{"buffer":0,"byteLength":69120,"byteOffset":30588,"target":34962},{"buffer":0,"byteLength":69120,"byteOffset":99708,"target":34962},{"buffer":0,"byteLength":46080,"byteOffset":168828,"target":34962},{"buffer":0,"byteLength":6,"byteOffset":214908,"target":34963},{"buffer":0,"byteLength":48,"byteOffset":214916,"target":34962},{"buffer":0,"byteLength":48,"byteOffset":214964,"target":34962},{"buffer":0,"byteLength":32,"byteOffset":215012,"target":34962},{"buffer":0,"byteLength":126,"byteOffset":215044,"target":34963},{"buffer":0,"byteLength":528,"byteOffset":215172,"target":34962},{"buffer":0,"byteLength":528,"byteOffset":215700,"target":34962},{"buffer":0,"byteLength":352,"byteOffset":216228,"target":34962},{"buffer":0,"byteLength":1032,"byteOffset":216580,"target":34963},{"buffer":0,"byteLength":3168,"byteOffset":217612,"target":34962},{"buffer":0,"byteLength":3168,"byteOffset":220780,"target":34962},{"buffer":0,"byteLength":2112,"byteOffset":223948,"target":34962},{"buffer":0,"byteLength":56208,"byteOffset":226060,"target":34963},{"buffer":0,"byteLength":279960,"byteOffset":282268,"target":34962},{"buffer":0,"byteLength":279960,"byteOffset":562228,"target":34962},{"buffer":0,"byteLength":186640,"byteOffset":842188,"target":34962},{"buffer":0,"byteLength":34152,"byteOffset":1028828,"target":34963},{"buffer":0,"byteLength":169752,"byteOffset":1062980,"target":34962},{"buffer":0,"byteLength":169752,"byteOffset":1232732,"target":34962},{"buffer":0,"byteLength":113168,"byteOffset":1402484,"target":34962},{"buffer":0,"byteLength":8382,"byteOffset":1515652,"target":34963},{"buffer":0,"byteLength":50004,"byteOffset":1524036,"target":34962},{"buffer":0,"byteLength":50004,"byteOffset":1574040,"target":34962},{"buffer":0,"byteLength":33336,"byteOffset":1624044,"target":34962},{"buffer":0,"byteLength":480,"byteOffset":1657380},{"buffer":0,"byteLength":1440,"byteOffset":1657860},{"buffer":0,"byteLength":480,"byteOffset":1659300},{"buffer":0,"byteLength":1920,"byteOffset":1659780},{"buffer":0,"byteLength":480,"byteOffset":1661700},{"buffer":0,"byteLength":1440,"byteOffset":1662180}],"buffers":[{"byteLength":1663620,"uri":"asarati.bin"}],"cameras":[{"extensions":{"S8S_v3d_camera":{"controls":"ORBIT","enablePan":true,"moveSpeed":1.0,"orbitMaxDistance":100.0,"orbitMaxPolarAngle":3.1415927410125732,"orbitMaxZoom":100.0,"orbitMinDistance":0.0,"orbitMinPolarAngle":0.0,"orbitMinZoom":0.009999999776482582,"orbitTarget":[0.0,0.0,-0.0],"rotateSpeed":1.0,"viewportFitInitialAspect":1.7777777777777777,"viewportFitType":"AUTO"}},"name":"Camera","perspective":{"aspectRatio":1.7777777777777777,"yfov":0.39959648408210363,"zfar":1000.0,"znear":0.10000000149011612},"type":"perspective"}],"extensions":{"S8S_v3d_light_probes":{"lightProbes":[{"clipEnd":40.0,"clipStart":0.800000011920929,"influenceDistance":2.5,"influenceGroup":"Collection.001","influenceGroupInv":false,"influenceType":"BOX","intensity":1.0,"name":"ReflectionCubemap","parallaxDistance":2.5,"parallaxType":"BOX","type":"CUBEMAP","visibilityGroup":null,"visibilityGroupInv":false}]}},"extensionsUsed":["S8S_v3d_texture","S8S_v3d_materials","S8S_v3d_camera","S8S_v3d_light_probes","S8S_v3d_mesh","S8S_v3d_node","S8S_v3d_animation","S8S_v3d_scene"],"images":[{"uri":"badge_new.png"},{"uri":"badge_new_001.png"},{"uri":"popup01.png"}],"materials":[{"alphaMode":"OPAQUE","extensions":{"S8S_v3d_materials":{"gtaoVisible":true,"materialIndex":0,"nodeGraph":{"edges":[{"fromNode":2,"fromOutput":6,"toInput":0,"toNode":4},{"fromNode":1,"fromOutput":0,"toInput":1,"toNode":4},{"fromNode":3,"fromOutput":0,"toInput":2,"toNode":4},{"fromNode":4,"fromOutput":0,"toInput":0,"toNode":0}],"nodes":[{"inputs":[[0,0,0,0],[0,0,0,0],[0.0,0.0,0.0],0.0],"is_active_output":true,"name":"Material Output","outputs":[],"type":"OUTPUT_MATERIAL_BL"},{"inputs":[[0.800000011920929,0.800000011920929,0.800000011920929,1.0],0.0,0.20000000298023224,1.4500000476837158,1.0,[0.0,0.0,0.0],0.0,[1.0,0.20000000298023224,0.10000000149011612],0.05000000074505806,1.399999976158142,0.0,0.5,[1.0,1.0,1.0,1.0],0.0,0.0,[0.0,0.0,0.0],0.418181836605072,0.0,0.029999999329447746,1.5,[1.0,1.0,1.0,1.0],[0.0,0.0,0.0],0.0,0.5,[1.0,1.0,1.0,1.0],[0.9132529497146606,0.6866554021835327,0.12742865085601807,1.0],3.0],"is_active_output":false,"name":"Principled BSDF","outputs":[[0,0,0,0]],"type":"BSDF_PRINCIPLED_BL"},{"inputs":[],"is_active_output":false,"name":"Geometry","outputs":[[0.0,0.0,0.0],[0.0,0.0,0.0],[0.0,0.0,0.0],[0.0,0.0,0.0],[0.0,0.0,0.0],[0.0,0.0,0.0],0.0,0.0,0.0],"type":"NEW_GEOMETRY_BL"},{"inputs":[[1.0,1.0,1.0,1.0]],"is_active_output":false,"name":"Transparent BSDF","outputs":[[0,0,0,0]],"type":"BSDF_TRANSPARENT_BL"},{"inputs":[0.5,[0,0,0,0],[0,0,0,0]],"is_active_output":false,"name":"Mix Shader.001","outputs":[[0,0,0,0]],"type":"MIX_SHADER_BL"}]},"useCastShadows":true}},"name":"Black"},{"alphaMode":"OPAQUE","name":"Black_Base_Star","pbrMetallicRoughness":{"baseColorFactor":[0.07999999821186066,0.07999999821186066,0.09000000357627869,1.0],"roughnessFactor":0.15000000596046448}},{"alphaMode":"OPAQUE","extensions":{"S8S_v3d_materials":{"gtaoVisible":true,"materialIndex":0,"nodeGraph":{"edges":[{"fromNode":0,"fromOutput":0,"toInput":0,"toNode":1}],"nodes":[{"inputs":[[0.007500290870666504,0.007498702500015497,0.00749848922714591,1.0],1.0,0.699999988079071,1.5,1.0,[0.0,0.0,0.0],0.0,[1.0,0.20000000298023224,0.10000000149011612],0.05000000074505806,1.399999976158142,0.0,1.5,[1.0,1.0,1.0,1.0],0.0,0.0,[0.0,0.0,0.0],0.0,0.0,0.029999999329447746,1.5,[1.0,1.0,1.0,1.0],[0.0,0.0,0.0],0.0,0.5,[1.0,1.0,1.0,1.0],[1.0,1.0,1.0,1.0],0.0],"is_active_output":false,"name":"Principled BSDF","outputs":[[0,0,0,0]],"type":"BSDF_PRINCIPLED_BL"},{"inputs":[[0,0,0,0],[0,0,0,0],[0.0,0.0,0.0],0.0],"is_active_output":true,"name":"Material Output","outputs":[],"type":"OUTPUT_MATERIAL_BL"}]},"useCastShadows":true}},"name":"Mat_BaseStarTop"},{"alphaMode":"OPAQUE","extensions":{"S8S_v3d_materials":{"gtaoVisible":true,"materialIndex":0,"nodeGraph":{"edges":[{"fromNode":2,"fromOutput":6,"toInput":0,"toNode":4},{"fromNode":1,"fromOutput":0,"toInput":1,"toNode":4},{"fromNode":3,"fromOutput":0,"toInput":2,"toNode":4},{"fromNode":4,"fromOutput":0,"toInput":0,"toNode":0}],"nodes":[{"inputs":[[0,0,0,0],[0,0,0,0],[0.0,0.0,0.0],0.0],"is_active_output":true,"name":"Material Output","outputs":[],"type":"OUTPUT_MATERIAL_BL"},{"inputs":[[0.800000011920929,0.800000011920929,0.800000011920929,1.0],0.0,0.20000000298023224,1.4500000476837158,1.0,[0.0,0.0,0.0],0.0,[1.0,0.20000000298023224,0.10000000149011612],0.05000000074505806,1.399999976158142,0.0,0.5,[1.0,1.0,1.0,1.0],0.0,0.0,[0.0,0.0,0.0],0.418181836605072,0.0,0.029999999329447746,1.5,[1.0,1.0,1.0,1.0],[0.0,0.0,0.0],0.0,0.5,[1.0,1.0,1.0,1.0],[0.9132529497146606,0.6866554021835327,0.12742865085601807,1.0],3.0],"is_active_output":false,"name":"Principled BSDF","outputs":[[0,0,0,0]],"type":"BSDF_PRINCIPLED_BL"},{"inputs":[],"is_active_output":false,"name":"Geometry","outputs":[[0.0,0.0,0.0],[0.0,0.0,0.0],[0.0,0.0,0.0],[0.0,0.0,0.0],[0.0,0.0,0.0],[0.0,0.0,0.0],0.0,0.0,0.0],"type":"NEW_GEOMETRY_BL"},{"inputs":[[1.0,1.0,1.0,1.0]],"is_active_output":false,"name":"Transparent BSDF","outputs":[[0,0,0,0]],"type":"BSDF_TRANSPARENT_BL"},{"inputs":[0.5,[0,0,0,0],[0,0,0,0]],"is_active_output":false,"name":"Mix Shader.001","outputs":[[0,0,0,0]],"type":"MIX_SHADER_BL"}]},"useCastShadows":true}},"name":"Mat_BaseStarTop_Light"},{"alphaMode":"BLEND","doubleSided":true,"extensions":{"S8S_v3d_materials":{"depthWrite":false,"gtaoVisible":false,"materialIndex":0,"nodeGraph":{"edges":[{"fromNode":0,"fromOutput":0,"toInput":0,"toNode":1},{"fromNode":2,"fromOutput":0,"toInput":0,"toNode":0},{"fromNode":2,"fromOutput":1,"toInput":4,"toNode":0}],"nodes":[{"inputs":[[0.800000011920929,0.800000011920929,0.800000011920929,1.0],0.0,0.5,1.4500000476837158,1.0,[0.0,0.0,0.0],0.0,[1.0,0.20000000298023224,0.10000000149011612],0.05000000074505806,1.399999976158142,0.0,0.5,[1.0,1.0,1.0,1.0],0.0,0.0,[0.0,0.0,0.0],0.0,0.0,0.029999999329447746,1.5,[1.0,1.0,1.0,1.0],[0.0,0.0,0.0],0.0,0.5,[1.0,1.0,1.0,1.0],[1.0,1.0,1.0,1.0],0.0],"is_active_output":false,"name":"Principled BSDF","outputs":[[0,0,0,0]],"type":"BSDF_PRINCIPLED_BL"},{"inputs":[[0,0,0,0],[0,0,0,0],[0.0,0.0,0.0],0.0],"is_active_output":true,"name":"Material Output","outputs":[],"type":"OUTPUT_MATERIAL_BL"},{"alphaMode":"STRAIGHT","inputs":[[0.0,0.0,0.0]],"is_active_output":false,"name":"Image Texture","outputs":[[0.0,0.0,0.0,0.0],0.0],"projection":"FLAT","projectionBlend":0.0,"texture":0,"type":"TEX_IMAGE_BL"}]},"renderSide":"DOUBLE","useCastShadows":true}},"name":"Mat_Info"},{"alphaMode":"OPAQUE","extensions":{"S8S_v3d_materials":{"gtaoVisible":true,"materialIndex":0,"nodeGraph":{"edges":[{"fromNode":0,"fromOutput":0,"toInput":0,"toNode":1}],"nodes":[{"inputs":[[0.005153174512088299,0.005153174512088299,0.005153174512088299,1.0],0.0,1.0,1.4500000476837158,1.0,[0.0,0.0,0.0],0.0,[1.0,0.20000000298023224,0.10000000149011612],0.05000000074505806,1.399999976158142,0.0,0.5,[1.0,1.0,1.0,1.0],0.0,0.0,[0.0,0.0,0.0],0.0,0.0,0.029999999329447746,1.5,[1.0,1.0,1.0,1.0],[0.0,0.0,0.0],0.0,0.5,[1.0,1.0,1.0,1.0],[1.0,1.0,1.0,1.0],0.0],"is_active_output":false,"name":"Principled BSDF","outputs":[[0,0,0,0]],"type":"BSDF_PRINCIPLED_BL"},{"inputs":[[0,0,0,0],[0,0,0,0],[0.0,0.0,0.0],0.0],"is_active_output":true,"name":"Material Output","outputs":[],"type":"OUTPUT_MATERIAL_BL"}]},"useCastShadows":true}},"name":"Mat_obj_prodBack"},{"alphaMode":"BLEND","doubleSided":true,"extensions":{"S8S_v3d_materials":{"depthWrite":false,"gtaoVisible":false,"materialIndex":0,"nodeGraph":{"edges":[{"fromNode":0,"fromOutput":0,"toInput":0,"toNode":1},{"fromNode":2,"fromOutput":0,"toInput":0,"toNode":0},{"fromNode":2,"fromOutput":1,"toInput":4,"toNode":0}],"nodes":[{"inputs":[[0.800000011920929,0.800000011920929,0.800000011920929,1.0],0.0,0.5,1.4500000476837158,1.0,[0.0,0.0,0.0],0.0,[1.0,0.20000000298023224,0.10000000149011612],0.05000000074505806,1.399999976158142,0.0,0.5,[1.0,1.0,1.0,1.0],0.0,0.0,[0.0,0.0,0.0],0.0,0.0,0.029999999329447746,1.5,[1.0,1.0,1.0,1.0],[0.0,0.0,0.0],0.0,0.5,[1.0,1.0,1.0,1.0],[1.0,1.0,1.0,1.0],0.0],"is_active_output":false,"name":"Principled BSDF","outputs":[[0,0,0,0]],"type":"BSDF_PRINCIPLED_BL"},{"inputs":[[0,0,0,0],[0,0,0,0],[0.0,0.0,0.0],0.0],"is_active_output":true,"name":"Material Output","outputs":[],"type":"OUTPUT_MATERIAL_BL"},{"alphaMode":"STRAIGHT","inputs":[[0.0,0.0,0.0]],"is_active_output":false,"name":"Image Texture","outputs":[[0.0,0.0,0.0,0.0],0.0],"projection":"FLAT","projectionBlend":0.0,"texture":0,"type":"TEX_IMAGE_BL"}]},"renderSide":"DOUBLE","useCastShadows":true}},"name":"Mat_popup01"},{"alphaMode":"BLEND","doubleSided":true,"extensions":{"S8S_v3d_materials":{"depthWrite":false,"gtaoVisible":false,"materialIndex":0,"nodeGraph":{"edges":[{"fromNode":0,"fromOutput":0,"toInput":0,"toNode":1},{"fromNode":2,"fromOutput":0,"toInput":0,"toNode":0},{"fromNode":2,"fromOutput":1,"toInput":4,"toNode":0}],"nodes":[{"inputs":[[0.800000011920929,0.800000011920929,0.800000011920929,1.0],0.0,0.5,1.4500000476837158,1.0,[0.0,0.0,0.0],0.0,[1.0,0.20000000298023224,0.10000000149011612],0.05000000074505806,1.399999976158142,0.0,0.5,[1.0,1.0,1.0,1.0],0.0,0.0,[0.0,0.0,0.0],0.0,0.0,0.029999999329447746,1.5,[1.0,1.0,1.0,1.0],[0.0,0.0,0.0],0.0,0.5,[1.0,1.0,1.0,1.0],[1.0,1.0,1.0,1.0],0.0],"is_active_output":false,"name":"Principled BSDF","outputs":[[0,0,0,0]],"type":"BSDF_PRINCIPLED_BL"},{"inputs":[[0,0,0,0],[0,0,0,0],[0.0,0.0,0.0],0.0],"is_active_output":true,"name":"Material Output","outputs":[],"type":"OUTPUT_MATERIAL_BL"},{"alphaMode":"STRAIGHT","inputs":[[0.0,0.0,0.0]],"is_active_output":false,"name":"Image Texture","outputs":[[0.0,0.0,0.0,0.0],0.0],"projection":"FLAT","projectionBlend":0.0,"texture":2,"type":"TEX_IMAGE_BL"}]},"renderSide":"DOUBLE","useCastShadows":true}},"name":"Mat_popup01.001"},{"alphaMode":"BLEND","extensions":{"S8S_v3d_materials":{"alphaToCoverage":true,"gtaoVisible":true,"materialIndex":0,"nodeGraph":{"edges":[{"fromNode":1,"fromOutput":0,"toInput":0,"toNode":0},{"fromNode":2,"fromOutput":2,"toInput":0,"toNode":1},{"fromNode":4,"fromOutput":1,"toInput":0,"toNode":3},{"fromNode":3,"fromOutput":0,"toInput":0,"toNode":2}],"nodes":[{"inputs":[[0,0,0,0],[0,0,0,0],[0.0,0.0,0.0],0.0],"is_active_output":true,"name":"Material Output","outputs":[],"type":"OUTPUT_MATERIAL_BL"},{"inputs":[[1.0,1.0,1.0,1.0],1.0],"is_active_output":false,"name":"Emission","outputs":[[0,0,0,0]],"type":"EMISSION_BL"},{"blendType":"MIX","clampFactor":true,"clampResult":false,"dataType":"RGBA","factorMode":"UNIFORM","inputs":[0.5,[0.5,0.5,0.5],0.0,0.0,[0.0,0.0,0.0],[0.0,0.0,0.0],[0.034696657210588455,0.051069896668195724,0.08994928747415543,1.0],[0.012531290762126446,0.0,0.007179132662713528,1.0],0,0],"is_active_output":false,"name":"Mix","outputs":[0.0,[0.0,0.0,0.0],[0.0,0.0,0.0,0.0],0],"type":"MIX_BL"},{"inputs":[0.5,1.100000262260437,0.0],"is_active_output":false,"name":"Math","operation":"MULTIPLY","outputs":[0.0],"type":"MATH_BL","useClamp":false},{"inputs":[0.9900000095367432,[0.0,0.0,0.0]],"is_active_output":false,"name":"Layer Weight","outputs":[0.0,0.0],"type":"LAYER_WEIGHT_BL"}]},"useCastShadows":true}},"name":"Material"},{"alphaMode":"OPAQUE","name":"White","pbrMetallicRoughness":{"baseColorFactor":[0.800000011920929,0.800000011920929,0.800000011920929,1.0],"baseColorTexture":{"index":3},"metallicFactor":0.0,"roughnessFactor":0.0}},{"alphaMode":"OPAQUE","extensions":{"S8S_v3d_materials":{"gtaoVisible":true,"materialIndex":0,"nodeGraph":{"edges":[{"fromNode":0,"fromOutput":0,"toInput":0,"toNode":1}],"nodes":[{"inputs":[[0.007500290870666504,0.007498702500015497,0.00749848922714591,1.0],1.0,0.699999988079071,1.5,1.0,[0.0,0.0,0.0],0.0,[1.0,0.20000000298023224,0.10000000149011612],0.05000000074505806,1.399999976158142,0.0,1.5,[1.0,1.0,1.0,1.0],0.0,0.0,[0.0,0.0,0.0],0.0,0.0,0.029999999329447746,1.5,[1.0,1.0,1.0,1.0],[0.0,0.0,0.0],0.0,0.5,[1.0,1.0,1.0,1.0],[1.0,1.0,1.0,1.0],0.0],"is_active_output":false,"name":"Principled BSDF","outputs":[[0,0,0,0]],"type":"BSDF_PRINCIPLED_BL"},{"inputs":[[0,0,0,0],[0,0,0,0],[0.0,0.0,0.0],0.0],"is_active_output":true,"name":"Material Output","outputs":[],"type":"OUTPUT_MATERIAL_BL"}]},"useCastShadows":true}},"name":"White.001"},{"alphaMode":"OPAQUE","extensions":{"S8S_v3d_materials":{"gtaoVisible":true,"materialIndex":0,"nodeGraph":{"edges":[{"fromNode":1,"fromOutput":0,"toInput":0,"toNode":0}],"nodes":[{"inputs":[[0,0,0,0],[0,0,0,0]],"is_active_output":true,"name":"World Output","outputs":[],"type":"OUTPUT_WORLD_BL"},{"inputs":[[0.07957866787910461,0.07957866787910461,0.07957866787910461,1.0],1.0],"is_active_output":false,"name":"Background","outputs":[[0,0,0,0]],"type":"BACKGROUND_BL"}]},"useCastShadows":true}},"name":"Verge3D_Environment_World"}],"meshes":[{"extensions":{"S8S_v3d_mesh":{"colorLayers":{},"uvLayers":{"UVMap":"TEXCOORD_0"}}},"name":"badge_new","primitives":[{"attributes":{"NORMAL":2,"POSITION":1,"TEXCOORD_0":3},"indices":0,"material":6,"mode":4}]},{"extensions":{"S8S_v3d_mesh":{"colorLayers":{},"uvLayers":{"UVMap":"TEXCOORD_0"}}},"name":"badge_new.001","primitives":[{"attributes":{"NORMAL":6,"POSITION":5,"TEXCOORD_0":7},"indices":4,"material":7,"mode":4}]},{"extensions":{"S8S_v3d_mesh":{"colorLayers":{},"uvLayers":{"UVMap":"TEXCOORD_0"}}},"name":"Cylinder.001","primitives":[{"attributes":{"NORMAL":10,"POSITION":9,"TEXCOORD_0":11},"indices":8,"material":2,"mode":4}]},{"extensions":{"S8S_v3d_mesh":{"colorLayers":{},"uvLayers":{}}},"name":"Cylinder.002","primitives":[{"attributes":{"NORMAL":14,"POSITION":13,"TEXCOORD_0":15},"indices":12,"material":1,"mode":4}]},{"extensions":{"S8S_v3d_mesh":{"colorLayers":{},"uvLayers":{"UVMap":"TEXCOORD_0"}}},"name":"Cylinder.003","primitives":[{"attributes":{"NORMAL":18,"POSITION":17,"TEXCOORD_0":19},"indices":16,"material":3,"mode":4}]},{"extensions":{"S8S_v3d_mesh":{"colorLayers":{},"uvLayers":{"UVMap":"TEXCOORD_0"}}},"name":"Icosphere","primitives":[{"attributes":{"NORMAL":22,"POSITION":21,"TEXCOORD_0":23},"indices":20,"material":8,"mode":4}]},{"extensions":{"S8S_v3d_mesh":{"colorLayers":{},"uvLayers":{"UVMap":"TEXCOORD_0"}}},"name":"Plane.005","primitives":[{"attributes":{"NORMAL":26,"POSITION":25,"TEXCOORD_0":27},"indices":24,"material":4,"mode":4}]},{"extensions":{"S8S_v3d_mesh":{"colorLayers":{},"uvLayers":{}}},"name":"Plane.040","primitives":[{"attributes":{"NORMAL":30,"POSITION":29,"TEXCOORD_0":31},"indices":28,"material":9,"mode":4}]},{"extensions":{"S8S_v3d_mesh":{"colorLayers":{},"uvLayers":{"UVMap":"TEXCOORD_0"}}},"name":"Plane.041","primitives":[{"attributes":{"NORMAL":34,"POSITION":33,"TEXCOORD_0":35},"indices":32,"material":5,"mode":4}]},{"extensions":{"S8S_v3d_mesh":{"colorLayers":{},"uvLayers":{}}},"name":"Text.003","primitives":[{"attributes":{"NORMAL":38,"POSITION":37,"TEXCOORD_0":39},"indices":36,"material":1,"mode":4}]},{"extensions":{"S8S_v3d_mesh":{"colorLayers":{},"uvLayers":{"UVMap":"TEXCOORD_0"}}},"name":"Text.016","primitives":[{"attributes":{"NORMAL":42,"POSITION":41,"TEXCOORD_0":43},"indices":40,"material":0,"mode":4}]},{"extensions":{"S8S_v3d_mesh":{"colorLayers":{},"uvLayers":{"UVMap":"TEXCOORD_0"}}},"name":"Text.017","primitives":[{"attributes":{"NORMAL":46,"POSITION":45,"TEXCOORD_0":47},"indices":44,"material":10,"mode":4}]}],"nodes":[{"extensions":{"S8S_v3d_node":{"frustumCulling":true,"groupNames":[],"hidden":false,"hidpiCompositing":false,"objectColor":[1.0,1.0,1.0,1.0],"objectIndex":0,"renderOrder":0,"useShadows":true}},"mesh":0,"name":"obj_Popup01","rotation":[0.7071067690849304,0.0,-0.0,0.7071067094802856],"scale":[0.12247216701507568,0.12247216701507568,0.12247216701507568],"translation":[0.12453427165746689,0.25428828597068787,0.0027327006682753563]},{"extensions":{"S8S_v3d_node":{"frustumCulling":true,"groupNames":[],"hidden":false,"hidpiCompositing":false,"objectColor":[1.0,1.0,1.0,1.0],"objectIndex":0,"renderOrder":0,"useShadows":true}},"mesh":10,"name":"txt_Down.002","rotation":[3.0908619663705394e-08,-0.7071067690849304,0.7071067690849304,3.0908616110991716e-08],"scale":[0.11015963554382324,0.11015963554382324,0.11015963554382324],"translation":[-0.01580899953842163,0.09000000357627869,0.054503001272678375]},{"extensions":{"S8S_v3d_node":{"frustumCulling":true,"groupNames":[],"hidden":false,"hidpiCompositing":false,"objectColor":[1.0,1.0,1.0,1.0],"objectIndex":0,"renderOrder":0,"useShadows":true}},"mesh":11,"name":"txt_Down_flat03","rotation":[0.1941954642534256,-0.6799177527427673,0.6799177527427673,0.1941954642534256],"scale":[0.1121305376291275,0.1121305376291275,0.1121305301785469],"translation":[-0.01580899953842163,0.09000000357627869,0.055491577833890915]},{"extensions":{"S8S_v3d_node":{"frustumCulling":true,"groupNames":[],"hidden":false,"hidpiCompositing":false,"objectColor":[1.0,1.0,1.0,1.0],"objectIndex":0,"renderOrder":0,"useShadows":true}},"mesh":1,"name":"obj_Popup02","rotation":[0.7071067690849304,0.0,-0.0,0.7071067094802856],"scale":[0.12247216701507568,0.12247216701507568,0.12247216701507568],"translation":[0.12453427165746689,0.11527706682682037,0.0027327006682753563]},{"extensions":{"S8S_v3d_node":{"frustumCulling":true,"groupNames":[],"hidden":false,"hidpiCompositing":false,"objectColor":[1.0,1.0,1.0,1.0],"objectIndex":0,"renderOrder":0,"useShadows":true}},"mesh":9,"name":"txt_F*king","rotation":[0.7071067690849304,0.0,-0.0,0.7071067690849304],"scale":[0.24606645107269287,0.24606645107269287,0.24606645107269287],"translation":[0.0,-0.27220362424850464,-2.842170943040401e-14]},{"extensions":{"S8S_v3d_light_probes":{"lightProbe":0},"S8S_v3d_node":{"frustumCulling":true,"groupNames":[],"hidden":false,"hidpiCompositing":false,"objectColor":[1.0,1.0,1.0,1.0],"objectIndex":0,"renderOrder":0}},"name":"ReflectionCubemap","scale":[0.32232534885406494,0.32232534885406494,0.32232534885406494]},{"extensions":{"S8S_v3d_node":{"frustumCulling":true,"groupNames":["Collection"],"hidden":false,"hidpiCompositing":false,"objectColor":[1.0,1.0,1.0,1.0],"objectIndex":0,"renderOrder":0,"useShadows":true}},"mesh":3,"name":"obj_BaseStar","scale":[0.45117488503456116,0.00883129145950079,0.45117488503456116],"translation":[0.0,0.005614804103970528,-0.0006405821768566966]},{"extensions":{"S8S_v3d_node":{"frustumCulling":true,"groupNames":["Collection"],"hidden":false,"hidpiCompositing":false,"objectColor":[1.0,1.0,1.0,1.0],"objectIndex":0,"renderOrder":0,"useShadows":true}},"mesh":7,"name":"obj_prodFront","rotation":[0.7071067690849304,0.0,-0.0,0.7071067690849304],"scale":[0.0925000011920929,1.0,0.11999999731779099],"translation":[-1.1964738111871737e-35,0.15091188251972198,0.002493376610800624]},{"extensions":{"S8S_v3d_node":{"frustumCulling":true,"groupNames":["Collection"],"hidden":false,"hidpiCompositing":false,"objectColor":[1.0,1.0,1.0,1.0],"objectIndex":0,"renderOrder":0,"useShadows":true}},"mesh":8,"name":"obj_prodBack","rotation":[0.7071067690849304,0.0,-0.0,0.7071067690849304],"scale":[0.0925000011920929,1.0,0.11999999731779099],"translation":[0.0,0.15091188251972198,-9.853143637883477e-06]},{"extensions":{"S8S_v3d_node":{"frustumCulling":true,"groupNames":["Collection"],"hidden":false,"hidpiCompositing":false,"objectColor":[1.0,1.0,1.0,1.0],"objectIndex":0,"renderOrder":0,"useShadows":true}},"mesh":6,"name":"obj_Info","rotation":[0.7071067690849304,0.0,-0.0,0.7071067690849304],"scale":[0.27969396114349365,0.1996828317642212,0.1996828317642212],"translation":[0.0012896619737148285,0.28052660822868347,2.0056692418002342e-10]},{"camera":0,"extensions":{"S8S_v3d_node":{"frustumCulling":true,"groupNames":["Collection"],"hidden":false,"hidpiCompositing":false,"objectColor":[1.0,1.0,1.0,1.0],"objectIndex":0,"renderOrder":0}},"name":"cam_Main","rotation":[0.0,0.0,0.0,1.0],"scale":[1.0,0.9999998807907104,0.9999998807907104],"translation":[0.0,0.0,3.1238362789154053]},{"extensions":{"S8S_v3d_node":{"frustumCulling":true,"groupNames":["Collection"],"hidden":false,"hidpiCompositing":false,"objectColor":[1.0,1.0,1.0,1.0],"objectIndex":0,"renderOrder":0,"useShadows":true}},"mesh":2,"name":"BaseStarTop","scale":[0.4396541118621826,0.008605781011283398,0.4396541118621826],"translation":[0.0,0.009822881780564785,-0.000640581944026053]},{"extensions":{"S8S_v3d_node":{"frustumCulling":true,"groupNames":["Collection"],"hidden":false,"hidpiCompositing":false,"objectColor":[1.0,1.0,1.0,1.0],"objectIndex":0,"renderOrder":0,"useShadows":true}},"mesh":4,"name":"BaseStarTop_Light","scale":[0.4396541118621826,0.008605781011283398,0.4396541118621826],"translation":[0.0,0.031093405559659004,-0.0006992904818616807]},{"children":[6,9,8,7],"extensions":{"S8S_v3d_node":{"frustumCulling":true,"groupNames":["Collection"],"hidden":false,"hidpiCompositing":false,"objectColor":[1.0,1.0,1.0,1.0],"objectIndex":0,"renderOrder":0}},"name":"elm_centro"},{"extensions":{"S8S_v3d_node":{"frustumCulling":true,"groupNames":["Collection"],"hidden":false,"hidpiCompositing":false,"objectColor":[1.0,1.0,1.0,1.0],"objectIndex":0,"renderOrder":0,"useShadows":true}},"mesh":5,"name":"obj_Environment","scale":[3.7006351947784424,3.7006351947784424,3.7006351947784424],"translation":[0.0,0.010539054870605469,-0.0501190684735775]}],"samplers":[{}],"scene":0,"scenes":[{"extensions":{"S8S_v3d_scene":{"aaMethod":"AUTO","iblEnvironmentMode":"PMREM","physicallyCorrectLights":true,"pmremMaxTileSize":512,"postprocessing":[{"bentNormals":true,"distance":0.20000000298023224,"factor":1.0,"precision":0.25,"type":"gtao"}],"shadowMap":{"esmDistanceScale":1.0,"renderReverseSided":false,"renderSingleSided":true,"type":"PCFPOISSON"},"toneMapping":{"type":"filmicBlender"},"worldMaterial":11}},"extras":{"animFrameRate":24,"coordSystem":"Z_UP_RIGHT"},"name":"Scene","nodes":[0,3,4,2,1,5,13,10,14,11,12]}],"textures":[{"extensions":{"S8S_v3d_texture":{"colorSpace":"srgb"}},"name":"badge_new.png","sampler":0,"source":0},{"extensions":{"S8S_v3d_texture":{"colorSpace":"srgb"}},"name":"badge_new.png","sampler":0,"source":0},{"extensions":{"S8S_v3d_texture":{"colorSpace":"srgb"}},"name":"badge_new.png.002","sampler":0,"source":1},{"extensions":{"S8S_v3d_texture":{"colorSpace":"srgb"}},"name":"popup01.png","sampler":0,"source":2}]}
