{"accessors":[{"bufferView":0,"componentType":5121,"count":282,"max":[159],"min":[0],"type":"SCALAR"},{"bufferView":1,"componentType":5126,"count":160,"max":[1.0,1.7027931213378906,1.0],"min":[-1.0,-1.7027928829193115,-1.0],"type":"VEC3"},{"bufferView":2,"componentType":5126,"count":160,"max":[0.9987204670906067,0.0,0.9987205266952515],"min":[-0.9987204670906067,-1.0,-0.9987205266952515],"type":"VEC3"},{"bufferView":3,"componentType":5126,"count":160,"max":[1.0,0.9900000095367432],"min":[0.0,0.0],"type":"VEC2"},{"bufferView":4,"componentType":5121,"count":372,"max":[191],"min":[0],"type":"SCALAR"},{"bufferView":5,"componentType":5126,"count":192,"max":[1.0,2.5821797847747803,1.0],"min":[-1.0,1.53843355178833,-1.0],"type":"VEC3"},{"bufferView":6,"componentType":5126,"count":192,"max":[0.9987205266952515,1.0,0.9987205266952515],"min":[-0.9987205266952515,-1.0,-0.9987205266952515],"type":"VEC3"},{"bufferView":7,"componentType":5126,"count":192,"max":[0.49000000953674316,0.9900000095367432],"min":[0.01000000536441803,0.5099999904632568],"type":"VEC2"},{"bufferView":8,"componentType":5121,"count":390,"max":[219],"min":[0],"type":"SCALAR"},{"bufferView":9,"componentType":5126,"count":220,"max":[1.0,0.0025000025052577257,1.0],"min":[-1.0,-0.002499999711290002,-1.0],"type":"VEC3"},{"bufferView":10,"componentType":5126,"count":220,"max":[1.0,1.0,1.0],"min":[-1.0,0.0,-1.0],"type":"VEC3"},{"bufferView":11,"componentType":5126,"count":220,"max":[1.0,1.0],"min":[0.0,0.0],"type":"VEC2"},{"bufferView":12,"componentType":5121,"count":126,"max":[43],"min":[0],"type":"SCALAR"},{"bufferView":13,"componentType":5126,"count":44,"max":[1.0,0.0,1.0],"min":[-1.0,0.0,-1.0],"type":"VEC3"},{"bufferView":14,"componentType":5126,"count":44,"max":[0.0,1.0,-0.0],"min":[0.0,1.0,-0.0],"type":"VEC3"},{"bufferView":15,"componentType":5126,"count":44,"max":[1.0,1.0],"min":[0.0,0.0],"type":"VEC2"},{"bufferView":16,"componentType":5121,"count":126,"max":[43],"min":[0],"type":"SCALAR"},{"bufferView":17,"componentType":5126,"count":44,"max":[1.0,0.0,1.0],"min":[-1.0,0.0,-1.0],"type":"VEC3"},{"bufferView":18,"componentType":5126,"count":44,"max":[0.0,1.0,-0.0],"min":[0.0,1.0,-0.0],"type":"VEC3"},{"bufferView":19,"componentType":5126,"count":44,"max":[1.0,1.0],"min":[0.0,0.0],"type":"VEC2"},{"bufferView":20,"componentType":5121,"count":390,"max":[219],"min":[0],"type":"SCALAR"},{"bufferView":21,"componentType":5126,"count":220,"max":[1.0,0.0025000025052577257,1.0],"min":[-1.0,-0.002499999711290002,-1.0],"type":"VEC3"},{"bufferView":22,"componentType":5126,"count":220,"max":[1.0,1.0,1.0],"min":[-1.0,0.0,-1.0],"type":"VEC3"},{"bufferView":23,"componentType":5126,"count":220,"max":[1.0,1.0],"min":[0.0,0.0],"type":"VEC2"},{"bufferView":24,"componentType":5121,"count":126,"max":[43],"min":[0],"type":"SCALAR"},{"bufferView":25,"componentType":5126,"count":44,"max":[1.0,0.0,1.0],"min":[-1.0,0.0,-1.0],"type":"VEC3"},{"bufferView":26,"componentType":5126,"count":44,"max":[0.0,1.0,-0.0],"min":[0.0,1.0,-0.0],"type":"VEC3"},{"bufferView":27,"componentType":5126,"count":44,"max":[1.0,1.0],"min":[0.0,0.0],"type":"VEC2"},{"bufferView":28,"componentType":5121,"count":390,"max":[219],"min":[0],"type":"SCALAR"},{"bufferView":29,"componentType":5126,"count":220,"max":[1.0,0.0025000025052577257,1.0],"min":[-1.0,-0.002499999711290002,-1.0],"type":"VEC3"},{"bufferView":30,"componentType":5126,"count":220,"max":[1.0,1.0,1.0],"min":[-1.0,0.0,-1.0],"type":"VEC3"},{"bufferView":31,"componentType":5126,"count":220,"max":[1.0,1.0],"min":[0.0,0.0],"type":"VEC2"},{"bufferView":32,"componentType":5123,"count":10752,"max":[7159],"min":[0],"type":"SCALAR"},{"bufferView":33,"componentType":5126,"count":7160,"max":[4.590119361877441,-4.5770792961120605,-0.5168173313140869],"min":[-4.589563369750977,-6.58233642578125,-1.3468174934387207],"type":"VEC3"},{"bufferView":34,"componentType":5126,"count":7160,"max":[0.9881843328475952,0.9978065490722656,1.0],"min":[-0.98508620262146,-0.9978090524673462,-1.0],"type":"VEC3"},{"bufferView":35,"componentType":5126,"count":7160,"max":[1.0,1.0],"min":[0.0,0.0],"type":"VEC2"},{"bufferView":36,"componentType":5123,"count":41448,"max":[34464],"min":[0],"type":"SCALAR"},{"bufferView":37,"componentType":5126,"count":34465,"max":[1.9517625570297241,0.4788593649864197,2.156635284423828],"min":[-1.9527045488357544,-1.9527616500854492,0.03379321098327637],"type":"VEC3"},{"bufferView":38,"componentType":5126,"count":34465,"max":[0.9997593760490417,0.999850332736969,1.0],"min":[-0.9996862411499023,-0.9995673894882202,-1.0],"type":"VEC3"},{"bufferView":39,"componentType":5126,"count":34465,"max":[1.0,1.0],"min":[0.0,1.0],"type":"VEC2"}],"asset":{"generator":"Verge3D for Blender v4.8.0","version":"2.0"},"bufferViews":[{"buffer":0,"byteLength":282,"byteOffset":0,"target":34963},{"buffer":0,"byteLength":1920,"byteOffset":284,"target":34962},{"buffer":0,"byteLength":1920,"byteOffset":2204,"target":34962},{"buffer":0,"byteLength":1280,"byteOffset":4124,"target":34962},{"buffer":0,"byteLength":372,"byteOffset":5404,"target":34963},{"buffer":0,"byteLength":2304,"byteOffset":5776,"target":34962},{"buffer":0,"byteLength":2304,"byteOffset":8080,"target":34962},{"buffer":0,"byteLength":1536,"byteOffset":10384,"target":34962},{"buffer":0,"byteLength":390,"byteOffset":11920,"target":34963},{"buffer":0,"byteLength":2640,"byteOffset":12312,"target":34962},{"buffer":0,"byteLength":2640,"byteOffset":14952,"target":34962},{"buffer":0,"byteLength":1760,"byteOffset":17592,"target":34962},{"buffer":0,"byteLength":126,"byteOffset":19352,"target":34963},{"buffer":0,"byteLength":528,"byteOffset":19480,"target":34962},{"buffer":0,"byteLength":528,"byteOffset":20008,"target":34962},{"buffer":0,"byteLength":352,"byteOffset":20536,"target":34962},{"buffer":0,"byteLength":126,"byteOffset":20888,"target":34963},{"buffer":0,"byteLength":528,"byteOffset":21016,"target":34962},{"buffer":0,"byteLength":528,"byteOffset":21544,"target":34962},{"buffer":0,"byteLength":352,"byteOffset":22072,"target":34962},{"buffer":0,"byteLength":390,"byteOffset":22424,"target":34963},{"buffer":0,"byteLength":2640,"byteOffset":22816,"target":34962},{"buffer":0,"byteLength":2640,"byteOffset":25456,"target":34962},{"buffer":0,"byteLength":1760,"byteOffset":28096,"target":34962},{"buffer":0,"byteLength":126,"byteOffset":29856,"target":34963},{"buffer":0,"byteLength":528,"byteOffset":29984,"target":34962},{"buffer":0,"byteLength":528,"byteOffset":30512,"target":34962},{"buffer":0,"byteLength":352,"byteOffset":31040,"target":34962},{"buffer":0,"byteLength":390,"byteOffset":31392,"target":34963},{"buffer":0,"byteLength":2640,"byteOffset":31784,"target":34962},{"buffer":0,"byteLength":2640,"byteOffset":34424,"target":34962},{"buffer":0,"byteLength":1760,"byteOffset":37064,"target":34962},{"buffer":0,"byteLength":21504,"byteOffset":38824,"target":34963},{"buffer":0,"byteLength":85920,"byteOffset":60328,"target":34962},{"buffer":0,"byteLength":85920,"byteOffset":146248,"target":34962},{"buffer":0,"byteLength":57280,"byteOffset":232168,"target":34962},{"buffer":0,"byteLength":82896,"byteOffset":289448,"target":34963},{"buffer":0,"byteLength":413580,"byteOffset":372344,"target":34962},{"buffer":0,"byteLength":413580,"byteOffset":785924,"target":34962},{"buffer":0,"byteLength":275720,"byteOffset":1199504,"target":34962}],"buffers":[{"byteLength":1475224,"uri":"asaratianm.bin"}],"cameras":[{"extensions":{"S8S_v3d_camera":{"controls":"ORBIT","enablePan":true,"moveSpeed":1.0,"orbitMaxDistance":100.0,"orbitMaxPolarAngle":3.1415927410125732,"orbitMaxZoom":100.0,"orbitMinDistance":0.0,"orbitMinPolarAngle":0.0,"orbitMinZoom":0.009999999776482582,"orbitTarget":[0.0,0.0,-0.0],"rotateSpeed":1.0,"viewportFitInitialAspect":1.7777777777777777,"viewportFitType":"AUTO"}},"name":"Camera.001","perspective":{"aspectRatio":1.7777777777777777,"yfov":0.39959648408210363,"zfar":100.0,"znear":0.10000000149011612},"type":"perspective"}],"extensions":{"S8S_v3d_lights":{"lights":[{"color":[1.0,0.8518502712249756,0.8518502712249756],"intensity":100.0,"name":"Lamp.001","profile":"blender","shadow":{"bias":-0.0018,"cameraFar":100,"cameraFov":0,"cameraNear":0.1,"csm":{"count":4,"exponent":0.800000011920929,"fade":0.10000000149011612,"lightMargin":0.0,"maxDistance":1000.0},"enabled":false,"expBias":2.5,"mapSize":1024,"radius":1.0,"slopeScaledBias":2.5},"type":"directional"}]}},"extensionsUsed":["S8S_v3d_texture","S8S_v3d_materials","S8S_v3d_camera","S8S_v3d_lights","S8S_v3d_mesh","S8S_v3d_node","S8S_v3d_scene"],"images":[{"uri":"environment.hdr"}],"materials":[{"alphaMode":"OPAQUE","extensions":{"S8S_v3d_materials":{"gtaoVisible":true,"materialIndex":0,"nodeGraph":{"edges":[{"fromNode":0,"fromOutput":0,"toInput":0,"toNode":1}],"nodes":[{"inputs":[[0.0,0.0,0.0,1.0],0.0,0.5,1.4500000476837158,1.0,[0.0,0.0,0.0],0.0,[1.0,0.20000000298023224,0.10000000149011612],0.05000000074505806,1.399999976158142,0.0,0.5,[1.0,1.0,1.0,1.0],0.0,0.0,[0.0,0.0,0.0],0.0,0.0,0.029999999329447746,1.5,[1.0,1.0,1.0,1.0],[0.0,0.0,0.0],0.0,0.5,[1.0,1.0,1.0,1.0],[0.0,0.0,0.0,1.0],1.0],"is_active_output":false,"name":"Principled BSDF","outputs":[[0,0,0,0]],"type":"BSDF_PRINCIPLED_BL"},{"inputs":[[0,0,0,0],[0,0,0,0],[0.0,0.0,0.0],0.0],"is_active_output":true,"name":"Material Output","outputs":[],"type":"OUTPUT_MATERIAL_BL"}]},"useCastShadows":true}},"name":"Black"},{"alphaMode":"OPAQUE","extensions":{"S8S_v3d_materials":{"gtaoVisible":true,"materialIndex":0,"nodeGraph":{"edges":[{"fromNode":0,"fromOutput":0,"toInput":0,"toNode":1}],"nodes":[{"inputs":[[0.0,0.0,0.0,1.0],0.0,0.5,1.4500000476837158,1.0,[0.0,0.0,0.0],0.0,[1.0,0.20000000298023224,0.10000000149011612],0.05000000074505806,1.399999976158142,0.0,0.5,[1.0,1.0,1.0,1.0],0.0,0.0,[0.0,0.0,0.0],0.0,0.0,0.029999999329447746,1.5,[1.0,1.0,1.0,1.0],[0.0,0.0,0.0],0.0,0.5,[1.0,1.0,1.0,1.0],[0.0,0.0,0.0,1.0],1.0],"is_active_output":false,"name":"Principled BSDF","outputs":[[0,0,0,0]],"type":"BSDF_PRINCIPLED_BL"},{"inputs":[[0,0,0,0],[0,0,0,0],[0.0,0.0,0.0],0.0],"is_active_output":true,"name":"Material Output","outputs":[],"type":"OUTPUT_MATERIAL_BL"}]},"useCastShadows":true}},"name":"Black.001"},{"alphaMode":"OPAQUE","extensions":{"S8S_v3d_materials":{"gtaoVisible":true,"materialIndex":0,"nodeGraph":{"edges":[{"fromNode":0,"fromOutput":0,"toInput":0,"toNode":1}],"nodes":[{"inputs":[[0.0,0.0,0.0,1.0],0.0,0.5,1.4500000476837158,1.0,[0.0,0.0,0.0],0.0,[1.0,0.20000000298023224,0.10000000149011612],0.05000000074505806,1.399999976158142,0.0,0.5,[1.0,1.0,1.0,1.0],0.0,0.0,[0.0,0.0,0.0],0.0,0.0,0.029999999329447746,1.5,[1.0,1.0,1.0,1.0],[0.0,0.0,0.0],0.0,0.5,[1.0,1.0,1.0,1.0],[0.0,0.0,0.0,1.0],1.0],"is_active_output":false,"name":"Principled BSDF","outputs":[[0,0,0,0]],"type":"BSDF_PRINCIPLED_BL"},{"inputs":[[0,0,0,0],[0,0,0,0],[0.0,0.0,0.0],0.0],"is_active_output":true,"name":"Material Output","outputs":[],"type":"OUTPUT_MATERIAL_BL"}]},"useCastShadows":true}},"name":"Black.002"},{"alphaMode":"OPAQUE","name":"Black_Base_Star","pbrMetallicRoughness":{"baseColorFactor":[0.0,0.0,0.0,1.0],"metallicFactor":0.0,"roughnessFactor":0.5}},{"alphaMode":"OPAQUE","extensions":{"S8S_v3d_materials":{"gtaoVisible":true,"materialIndex":0,"nodeGraph":{"edges":[{"fromNode":0,"fromOutput":0,"toInput":0,"toNode":1}],"nodes":[{"inputs":[[0.0,0.0,0.0,1.0],0.0,0.5,1.4500000476837158,1.0,[0.0,0.0,0.0],0.0,[1.0,0.20000000298023224,0.10000000149011612],0.05000000074505806,1.399999976158142,0.0,0.5,[1.0,1.0,1.0,1.0],0.0,0.0,[0.0,0.0,0.0],0.0,0.0,0.029999999329447746,1.5,[1.0,1.0,1.0,1.0],[0.0,0.0,0.0],0.0,0.5,[1.0,1.0,1.0,1.0],[1.0,1.0,1.0,1.0],0.0],"is_active_output":false,"name":"Principled BSDF","outputs":[[0,0,0,0]],"type":"BSDF_PRINCIPLED_BL"},{"inputs":[[0,0,0,0],[0,0,0,0],[0.0,0.0,0.0],0.0],"is_active_output":true,"name":"Material Output","outputs":[],"type":"OUTPUT_MATERIAL_BL"}]},"useCastShadows":true}},"name":"Black_Txt_FukingBook"},{"alphaMode":"OPAQUE","name":"White","pbrMetallicRoughness":{"baseColorFactor":[0.800000011920929,0.800000011920929,0.800000011920929,1.0],"metallicFactor":0.0,"roughnessFactor":0.5}},{"alphaMode":"OPAQUE","name":"White.001","pbrMetallicRoughness":{"baseColorFactor":[0.800000011920929,0.800000011920929,0.800000011920929,1.0],"metallicFactor":0.0,"roughnessFactor":0.5}},{"alphaMode":"OPAQUE","name":"White.002","pbrMetallicRoughness":{"baseColorFactor":[0.800000011920929,0.800000011920929,0.800000011920929,1.0],"metallicFactor":0.0,"roughnessFactor":0.5}},{"alphaMode":"OPAQUE","extensions":{"S8S_v3d_materials":{"gtaoVisible":true,"materialIndex":0,"nodeGraph":{"edges":[{"fromNode":0,"fromOutput":0,"toInput":0,"toNode":1}],"nodes":[{"inputs":[[0.800000011920929,0.800000011920929,0.800000011920929,1.0],0.0,0.5,1.4500000476837158,1.0,[0.0,0.0,0.0],0.0,[1.0,0.20000000298023224,0.10000000149011612],0.05000000074505806,1.399999976158142,0.0,0.5,[1.0,1.0,1.0,1.0],0.0,0.0,[0.0,0.0,0.0],0.0,0.0,0.029999999329447746,1.5,[1.0,1.0,1.0,1.0],[0.0,0.0,0.0],0.0,0.5,[1.0,1.0,1.0,1.0],[1.0,1.0,1.0,1.0],0.0],"is_active_output":false,"name":"Principled BSDF","outputs":[[0,0,0,0]],"type":"BSDF_PRINCIPLED_BL"},{"inputs":[[0,0,0,0],[0,0,0,0],[0.0,0.0,0.0],0.0],"is_active_output":true,"name":"Material Output","outputs":[],"type":"OUTPUT_MATERIAL_BL"}]},"useCastShadows":true}},"name":"White_BaseStarTop"},{"alphaMode":"OPAQUE","extensions":{"S8S_v3d_materials":{"gtaoVisible":true,"materialIndex":0,"nodeGraph":{"edges":[{"fromNode":0,"fromOutput":0,"toInput":0,"toNode":1}],"nodes":[{"inputs":[[0.800000011920929,0.800000011920929,0.800000011920929,1.0],0.0,0.5,1.4500000476837158,1.0,[0.0,0.0,0.0],0.0,[1.0,0.20000000298023224,0.10000000149011612],0.05000000074505806,1.399999976158142,0.0,0.5,[1.0,1.0,1.0,1.0],0.0,0.0,[0.0,0.0,0.0],0.0,0.0,0.029999999329447746,1.5,[1.0,1.0,1.0,1.0],[0.0,0.0,0.0],0.0,0.5,[1.0,1.0,1.0,1.0],[1.0,1.0,1.0,1.0],0.0],"is_active_output":false,"name":"Principled BSDF","outputs":[[0,0,0,0]],"type":"BSDF_PRINCIPLED_BL"},{"inputs":[[0,0,0,0],[0,0,0,0],[0.0,0.0,0.0],0.0],"is_active_output":true,"name":"Material Output","outputs":[],"type":"OUTPUT_MATERIAL_BL"}]},"useCastShadows":true}},"name":"White_Txt_Pay&Down"},{"alphaMode":"OPAQUE","extensions":{"S8S_v3d_materials":{"gtaoVisible":true,"materialIndex":0,"nodeGraph":{"edges":[{"fromNode":0,"fromOutput":0,"toInput":0,"toNode":1},{"fromNode":4,"fromOutput":0,"toInput":6,"toNode":2},{"fromNode":3,"fromOutput":0,"toInput":0,"toNode":2},{"fromNode":2,"fromOutput":2,"toInput":0,"toNode":0}],"nodes":[{"inputs":[[0.05087608844041824,0.05087608844041824,0.05087608844041824,1.0],1.0],"is_active_output":false,"name":"Background","outputs":[[0,0,0,0]],"type":"BACKGROUND_BL"},{"inputs":[[0,0,0,0],[0,0,0,0]],"is_active_output":true,"name":"World Output","outputs":[],"type":"OUTPUT_WORLD_BL"},{"blendType":"MIX","clampFactor":true,"clampResult":false,"dataType":"RGBA","factorMode":"UNIFORM","inputs":[0.5,[0.5,0.5,0.5],0.0,0.0,[0.0,0.0,0.0],[0.0,0.0,0.0],[0.5,0.5,0.5,1.0],[0.0,0.0,0.0,1.0],0,0],"is_active_output":false,"name":"Mix","outputs":[0.0,[0.0,0.0,0.0],[0.0,0.0,0.0,0.0],0],"type":"MIX_BL"},{"inputs":[],"is_active_output":false,"name":"Light Path","outputs":[0.0,0.0,0.0,0.0,0.0,0.0,0.0,0.0,0.0,0.0,0.0,0.0,0.0],"type":"LIGHT_PATH_BL"},{"inputs":[[0.0,0.0,0.0]],"is_active_output":false,"name":"Environment Texture","outputs":[[0.0,0.0,0.0,0.0]],"projection":"EQUIRECTANGULAR","texture":0,"type":"TEX_ENVIRONMENT_BL"}]},"useCastShadows":true}},"name":"Verge3D_Environment_World"}],"meshes":[{"extensions":{"S8S_v3d_mesh":{"colorLayers":{},"uvLayers":{}}},"name":"Cylinder","primitives":[{"attributes":{"NORMAL":2,"POSITION":1,"TEXCOORD_0":3},"indices":0,"material":3,"mode":4}]},{"extensions":{"S8S_v3d_mesh":{"colorLayers":{},"uvLayers":{"UVMap":"TEXCOORD_0"}}},"name":"Cylinder.001","primitives":[{"attributes":{"NORMAL":6,"POSITION":5,"TEXCOORD_0":7},"indices":4,"material":8,"mode":4}]},{"extensions":{"S8S_v3d_mesh":{"colorLayers":{},"uvLayers":{"UVMap":"TEXCOORD_0"}}},"name":"Plane.001","primitives":[{"attributes":{"NORMAL":10,"POSITION":9,"TEXCOORD_0":11},"indices":8,"material":1,"mode":4}]},{"extensions":{"S8S_v3d_mesh":{"colorLayers":{},"uvLayers":{}}},"name":"Plane.002","primitives":[{"attributes":{"NORMAL":14,"POSITION":13,"TEXCOORD_0":15},"indices":12,"material":6,"mode":4}]},{"extensions":{"S8S_v3d_mesh":{"colorLayers":{},"uvLayers":{}}},"name":"Plane.003","primitives":[{"attributes":{"NORMAL":18,"POSITION":17,"TEXCOORD_0":19},"indices":16,"material":7,"mode":4}]},{"extensions":{"S8S_v3d_mesh":{"colorLayers":{},"uvLayers":{"UVMap":"TEXCOORD_0"}}},"name":"Plane.004","primitives":[{"attributes":{"NORMAL":22,"POSITION":21,"TEXCOORD_0":23},"indices":20,"material":2,"mode":4}]},{"extensions":{"S8S_v3d_mesh":{"colorLayers":{},"uvLayers":{}}},"name":"Plane.040","primitives":[{"attributes":{"NORMAL":26,"POSITION":25,"TEXCOORD_0":27},"indices":24,"material":5,"mode":4}]},{"extensions":{"S8S_v3d_mesh":{"colorLayers":{},"uvLayers":{"UVMap":"TEXCOORD_0"}}},"name":"Plane.041","primitives":[{"attributes":{"NORMAL":30,"POSITION":29,"TEXCOORD_0":31},"indices":28,"material":0,"mode":4}]},{"extensions":{"S8S_v3d_mesh":{"colorLayers":{},"uvLayers":{"UVMap":"TEXCOORD_0"}}},"name":"Text.008","primitives":[{"attributes":{"NORMAL":34,"POSITION":33,"TEXCOORD_0":35},"indices":32,"material":9,"mode":4}]},{"extensions":{"S8S_v3d_mesh":{"colorLayers":{},"uvLayers":{"UVMap":"TEXCOORD_0"}}},"name":"Text.009","primitives":[{"attributes":{"NORMAL":38,"POSITION":37,"TEXCOORD_0":39},"indices":36,"material":4,"mode":4}]}],"nodes":[{"extensions":{"S8S_v3d_node":{"frustumCulling":true,"groupNames":[],"hidden":false,"hidpiCompositing":false,"objectColor":[1.0,1.0,1.0,1.0],"objectIndex":0,"renderOrder":0,"useShadows":true}},"mesh":8,"name":"Txt_Pay&Down","rotation":[3.0908619663705394e-08,-0.7071067690849304,0.7071067690849304,3.0908619663705394e-08],"scale":[0.05653178319334984,0.05653178319334984,0.05653178319334984]},{"extensions":{"S8S_v3d_node":{"frustumCulling":true,"groupNames":[],"hidden":false,"hidpiCompositing":false,"objectColor":[1.0,1.0,1.0,1.0],"objectIndex":0,"renderOrder":0,"useShadows":true}},"mesh":9,"name":"Txt_FukingBook","rotation":[3.0908619663705394e-08,-0.7071067094802856,0.7071067690849304,3.0908616110991716e-08],"scale":[0.1905067414045334,0.1905067414045334,0.1905067414045334],"translation":[-1.0587911840678754e-22,-1.4901161193847656e-08,-8.881784197001252e-16]},{"extensions":{"S8S_v3d_node":{"frustumCulling":true,"groupNames":[],"hidden":false,"hidpiCompositing":false,"objectColor":[1.0,1.0,1.0,1.0],"objectIndex":0,"renderOrder":0,"useShadows":true}},"mesh":7,"name":"eBook_Back","rotation":[0.7071067690849304,0.0,-0.0,0.7071067690849304],"scale":[0.0925000011920929,1.0,0.11999999731779099],"translation":[-0.25580498576164246,0.14996300637722015,-9.853143637883477e-06]},{"extensions":{"S8S_v3d_node":{"frustumCulling":true,"groupNames":[],"hidden":false,"hidpiCompositing":false,"objectColor":[1.0,1.0,1.0,1.0],"objectIndex":0,"renderOrder":0,"useShadows":true}},"mesh":1,"name":"Obj_BaseStarTop","scale":[0.4396541118621826,0.008605781011283398,0.4396541118621826],"translation":[9.458701242692769e-05,0.009822881780564785,-0.000640581944026053]},{"extensions":{"S8S_v3d_node":{"frustumCulling":true,"groupNames":[],"hidden":false,"hidpiCompositing":false,"objectColor":[1.0,1.0,1.0,1.0],"objectIndex":0,"renderOrder":0,"useShadows":true}},"mesh":6,"name":"eBook_Front","rotation":[0.7071067690849304,0.0,-0.0,0.7071067690849304],"scale":[0.0925000011920929,1.0,0.11999999731779099],"translation":[-0.25580528378486633,0.14996300637722015,0.0024901479482650757]},{"extensions":{"S8S_v3d_node":{"frustumCulling":true,"groupNames":[],"hidden":false,"hidpiCompositing":false,"objectColor":[1.0,1.0,1.0,1.0],"objectIndex":0,"renderOrder":0,"useShadows":true}},"mesh":0,"name":"Obj_BaseStar","scale":[0.45117488503456116,0.00883129145950079,0.45117488503456116],"translation":[9.458701242692769e-05,0.005614804103970528,-0.0006405821768566966]},{"extensions":{"S8S_v3d_node":{"frustumCulling":true,"groupNames":[],"hidden":false,"hidpiCompositing":false,"objectColor":[1.0,1.0,1.0,1.0],"objectIndex":0,"renderOrder":0,"useShadows":true}},"mesh":2,"name":"audioBook_Back","rotation":[0.7071067690849304,0.0,-0.0,0.7071067690849304],"scale":[0.0925000011920929,1.0,0.11999999731779099],"translation":[0.0,0.14996300637722015,-9.853143637883477e-06]},{"extensions":{"S8S_v3d_node":{"frustumCulling":true,"groupNames":[],"hidden":false,"hidpiCompositing":false,"objectColor":[1.0,1.0,1.0,1.0],"objectIndex":0,"renderOrder":0,"useShadows":true}},"mesh":3,"name":"audioBook_Front","rotation":[0.7071067690849304,0.0,-0.0,0.7071067690849304],"scale":[0.0925000011920929,1.0,0.11999999731779099],"translation":[0.0,0.14996300637722015,0.0024901479482650757]},{"extensions":{"S8S_v3d_node":{"frustumCulling":true,"groupNames":[],"hidden":false,"hidpiCompositing":false,"objectColor":[1.0,1.0,1.0,1.0],"objectIndex":0,"renderOrder":0,"useShadows":true}},"mesh":5,"name":"boxBook_Back","rotation":[0.7071067690849304,0.0,-0.0,0.7071067690849304],"scale":[0.0925000011920929,1.0,0.11999999731779099],"translation":[0.25580498576164246,0.14996300637722015,-9.853143637883477e-06]},{"extensions":{"S8S_v3d_node":{"frustumCulling":true,"groupNames":[],"hidden":false,"hidpiCompositing":false,"objectColor":[1.0,1.0,1.0,1.0],"objectIndex":0,"renderOrder":0,"useShadows":true}},"mesh":4,"name":"boxBook_Front","rotation":[0.7071067690849304,0.0,-0.0,0.7071067690849304],"scale":[0.0925000011920929,1.0,0.11999999731779099],"translation":[0.25580498576164246,0.14996300637722015,0.0024901479482650757]},{"extensions":{"S8S_v3d_lights":{"light":0},"S8S_v3d_node":{"frustumCulling":true,"groupNames":["Collection 1"],"hidden":false,"hidpiCompositing":false,"objectColor":[0.0,0.0,0.0,0.0],"objectIndex":0,"renderOrder":0}},"name":"Lamp","rotation":[-0.28416627645492554,0.7269423007965088,0.34203392267227173,0.5232754945755005],"scale":[1.0,0.9999998807907104,0.9999998807907104],"translation":[4.193215370178223,5.812328338623047,-1.4394804239273071]},{"camera":0,"extensions":{"S8S_v3d_node":{"frustumCulling":true,"groupNames":["Collection 1"],"hidden":false,"hidpiCompositing":false,"objectColor":[0.0,0.0,0.0,0.0],"objectIndex":0,"renderOrder":0}},"name":"Camera","rotation":[-0.0031053628772497177,0.0,0.0,0.9999951720237732],"scale":[0.4398869276046753,0.4398869574069977,0.4398869574069977],"translation":[0.0,-0.07450012117624283,1.883250117301941]}],"samplers":[{}],"scene":0,"scenes":[{"extensions":{"S8S_v3d_scene":{"aaMethod":"AUTO","iblEnvironmentMode":"PMREM","physicallyCorrectLights":true,"pmremMaxTileSize":256,"shadowMap":{"esmDistanceScale":1.0,"renderReverseSided":false,"renderSingleSided":true,"type":"PCFPOISSON"},"worldMaterial":10}},"extras":{"animFrameRate":24,"coordSystem":"Z_UP_RIGHT"},"name":"Scene","nodes":[0,1,4,2,3,5,6,7,8,9,10,11]}],"textures":[{"extensions":{"S8S_v3d_texture":{"colorSpace":"linear rec.709","source":0}},"name":"environment.hdr.001","sampler":0}]}
