{"accessors":[{"bufferView":0,"componentType":5121,"count":6,"max":[3],"min":[0],"type":"SCALAR"},{"bufferView":1,"componentType":5126,"count":4,"max":[0.4985119104385376,0.0,0.5],"min":[-0.4985119104385376,0.0,-0.5],"type":"VEC3"},{"bufferView":2,"componentType":5126,"count":4,"max":[0.0,1.0,-0.0],"min":[0.0,1.0,-0.0],"type":"VEC3"},{"bufferView":3,"componentType":5126,"count":4,"max":[1.0,1.0],"min":[0.0,0.0],"type":"VEC2"},{"bufferView":4,"componentType":5121,"count":6,"max":[3],"min":[0],"type":"SCALAR"},{"bufferView":5,"componentType":5126,"count":4,"max":[0.4985119104385376,0.0,0.5],"min":[-0.4985119104385376,0.0,-0.5],"type":"VEC3"},{"bufferView":6,"componentType":5126,"count":4,"max":[0.0,1.0,-0.0],"min":[0.0,1.0,-0.0],"type":"VEC3"},{"bufferView":7,"componentType":5126,"count":4,"max":[1.0,1.0],"min":[0.0,0.0],"type":"VEC2"},{"bufferView":8,"componentType":5121,"count":282,"max":[159],"min":[0],"type":"SCALAR"},{"bufferView":9,"componentType":5126,"count":160,"max":[1.0,2.5821797847747803,1.0],"min":[-1.0,1.0689820051193237,-1.0],"type":"VEC3"},{"bufferView":10,"componentType":5126,"count":160,"max":[0.9987205266952515,0.0,0.9987205266952515],"min":[-0.9987205266952515,-1.0,-0.9987205266952515],"type":"VEC3"},{"bufferView":11,"componentType":5126,"count":160,"max":[0.49000000953674316,0.9900000095367432],"min":[0.01000000536441803,0.5099999904632568],"type":"VEC2"},{"bufferView":12,"componentType":5121,"count":90,"max":[31],"min":[0],"type":"SCALAR"},{"bufferView":13,"componentType":5126,"count":32,"max":[1.0,0.08217978477478027,1.0],"min":[-1.0,-0.08217978477478027,-1.0],"type":"VEC3"},{"bufferView":14,"componentType":5126,"count":32,"max":[0.0,1.0,-0.0],"min":[0.0,1.0,-0.0],"type":"VEC3"},{"bufferView":15,"componentType":5126,"count":32,"max":[0.49000000953674316,0.9900000095367432],"min":[0.01000000536441803,0.5099999904632568],"type":"VEC2"},{"bufferView":16,"componentType":5121,"count":372,"max":[191],"min":[0],"type":"SCALAR"},{"bufferView":17,"componentType":5126,"count":192,"max":[1.0,1.7027931213378906,1.0],"min":[-1.0,-2.98218035697937,-1.0],"type":"VEC3"},{"bufferView":18,"componentType":5126,"count":192,"max":[0.9987205266952515,1.0,0.9987205266952515],"min":[-0.9987205266952515,-1.0,-0.9987205266952515],"type":"VEC3"},{"bufferView":19,"componentType":5126,"count":192,"max":[1.0,0.9900000095367432],"min":[0.0,0.0],"type":"VEC2"},{"bufferView":20,"componentType":5121,"count":282,"max":[159],"min":[0],"type":"SCALAR"},{"bufferView":21,"componentType":5126,"count":160,"max":[1.0,2.5821797847747803,1.0],"min":[-1.0,1.0689820051193237,-1.0],"type":"VEC3"},{"bufferView":22,"componentType":5126,"count":160,"max":[0.9987205266952515,0.0,0.9987205266952515],"min":[-0.9987205266952515,-1.0,-0.9987205266952515],"type":"VEC3"},{"bufferView":23,"componentType":5126,"count":160,"max":[0.49000000953674316,0.9900000095367432],"min":[0.01000000536441803,0.5099999904632568],"type":"VEC2"},{"bufferView":24,"componentType":5123,"count":8640,"max":[5759],"min":[0],"type":"SCALAR"},{"bufferView":25,"componentType":5126,"count":5760,"max":[0.9126731753349304,0.9154302477836609,0.9066662788391113],"min":[-0.9126731753349304,-0.9154303073883057,-0.9066662788391113],"type":"VEC3"},{"bufferView":26,"componentType":5126,"count":5760,"max":[0.993778645992279,0.9979907870292664,0.997323751449585],"min":[-0.9937788844108582,-0.9979907870292664,-0.997323751449585],"type":"VEC3"},{"bufferView":27,"componentType":5126,"count":5760,"max":[0.9816919565200806,1.0],"min":[0.018308067694306374,0.527617871761322],"type":"VEC2"},{"bufferView":28,"componentType":5121,"count":6,"max":[3],"min":[0],"type":"SCALAR"},{"bufferView":29,"componentType":5126,"count":4,"max":[0.32563209533691406,9.247179910687464e-09,1.25],"min":[-1.0,-9.247179910687464e-09,-1.25],"type":"VEC3"},{"bufferView":30,"componentType":5126,"count":4,"max":[0.0,1.0,-0.0],"min":[0.0,1.0,-0.0],"type":"VEC3"},{"bufferView":31,"componentType":5126,"count":4,"max":[1.0,1.0],"min":[0.0,0.0],"type":"VEC2"},{"bufferView":32,"componentType":5121,"count":126,"max":[43],"min":[0],"type":"SCALAR"},{"bufferView":33,"componentType":5126,"count":44,"max":[1.0,0.0,1.0],"min":[-1.0,0.0,-1.0],"type":"VEC3"},{"bufferView":34,"componentType":5126,"count":44,"max":[0.0,1.0,-0.0],"min":[0.0,1.0,-0.0],"type":"VEC3"},{"bufferView":35,"componentType":5126,"count":44,"max":[1.0,1.0],"min":[0.0,0.0],"type":"VEC2"},{"bufferView":36,"componentType":5123,"count":516,"max":[263],"min":[0],"type":"SCALAR"},{"bufferView":37,"componentType":5126,"count":264,"max":[1.0,0.0025000025052577257,1.0],"min":[-1.0,-0.002499999711290002,-1.0],"type":"VEC3"},{"bufferView":38,"componentType":5126,"count":264,"max":[1.0,1.0,1.0],"min":[-1.0,-1.0,-1.0],"type":"VEC3"},{"bufferView":39,"componentType":5126,"count":264,"max":[1.0,1.0],"min":[0.0,0.0],"type":"VEC2"},{"bufferView":40,"componentType":5123,"count":28104,"max":[23329],"min":[0],"type":"SCALAR"},{"bufferView":41,"componentType":5126,"count":23330,"max":[1.468185544013977,0.120069719851017,1.077531099319458],"min":[-1.4672834873199463,-1.4710947275161743,-1.0273973941802979],"type":"VEC3"},{"bufferView":42,"componentType":5126,"count":23330,"max":[0.9998997449874878,0.999978244304657,1.0],"min":[-0.9995698928833008,-0.9999800324440002,-1.0],"type":"VEC3"},{"bufferView":43,"componentType":5126,"count":23330,"max":[1.0,1.0],"min":[0.0,1.0],"type":"VEC2"},{"bufferView":44,"componentType":5123,"count":4191,"max":[4170],"min":[0],"type":"SCALAR"},{"bufferView":45,"componentType":5126,"count":4171,"max":[3.1721131801605225,3.1557223796844482,-0.24689072370529175],"min":[-3.1740705966949463,-3.1752116680145264,-1.167891263961792],"type":"VEC3"},{"bufferView":46,"componentType":5126,"count":4171,"max":[0.9997934699058533,0.9977432489395142,0.8986905813217163],"min":[-0.9998459815979004,-0.997817873954773,-1.0],"type":"VEC3"},{"bufferView":47,"componentType":5126,"count":4171,"max":[1.0,1.0],"min":[0.0,1.0],"type":"VEC2"},{"bufferView":48,"componentType":5123,"count":17076,"max":[14136],"min":[0],"type":"SCALAR"},{"bufferView":49,"componentType":5126,"count":14137,"max":[3.222898006439209,3.222414970397949,-0.26124924421310425],"min":[-3.2242980003356934,-3.224040985107422,-1.1822495460510254],"type":"VEC3"},{"bufferView":50,"componentType":5126,"count":14137,"max":[0.99980628490448,0.9999751448631287,1.0],"min":[-0.9999984502792358,-0.9999160170555115,-1.0],"type":"VEC3"},{"bufferView":51,"componentType":5126,"count":14137,"max":[1.0,1.0],"min":[0.0,1.0],"type":"VEC2"}],"asset":{"generator":"Verge3D for Blender v4.12.0","version":"2.0"},"bufferViews":[{"buffer":0,"byteLength":6,"byteOffset":0,"target":34963},{"buffer":0,"byteLength":48,"byteOffset":8,"target":34962},{"buffer":0,"byteLength":48,"byteOffset":56,"target":34962},{"buffer":0,"byteLength":32,"byteOffset":104,"target":34962},{"buffer":0,"byteLength":6,"byteOffset":136,"target":34963},{"buffer":0,"byteLength":48,"byteOffset":144,"target":34962},{"buffer":0,"byteLength":48,"byteOffset":192,"target":34962},{"buffer":0,"byteLength":32,"byteOffset":240,"target":34962},{"buffer":0,"byteLength":282,"byteOffset":272,"target":34963},{"buffer":0,"byteLength":1920,"byteOffset":556,"target":34962},{"buffer":0,"byteLength":1920,"byteOffset":2476,"target":34962},{"buffer":0,"byteLength":1280,"byteOffset":4396,"target":34962},{"buffer":0,"byteLength":90,"byteOffset":5676,"target":34963},{"buffer":0,"byteLength":384,"byteOffset":5768,"target":34962},{"buffer":0,"byteLength":384,"byteOffset":6152,"target":34962},{"buffer":0,"byteLength":256,"byteOffset":6536,"target":34962},{"buffer":0,"byteLength":372,"byteOffset":6792,"target":34963},{"buffer":0,"byteLength":2304,"byteOffset":7164,"target":34962},{"buffer":0,"byteLength":2304,"byteOffset":9468,"target":34962},{"buffer":0,"byteLength":1536,"byteOffset":11772,"target":34962},{"buffer":0,"byteLength":282,"byteOffset":13308,"target":34963},{"buffer":0,"byteLength":1920,"byteOffset":13592,"target":34962},{"buffer":0,"byteLength":1920,"byteOffset":15512,"target":34962},{"buffer":0,"byteLength":1280,"byteOffset":17432,"target":34962},{"buffer":0,"byteLength":17280,"byteOffset":18712,"target":34963},{"buffer":0,"byteLength":69120,"byteOffset":35992,"target":34962},{"buffer":0,"byteLength":69120,"byteOffset":105112,"target":34962},{"buffer":0,"byteLength":46080,"byteOffset":174232,"target":34962},{"buffer":0,"byteLength":6,"byteOffset":220312,"target":34963},{"buffer":0,"byteLength":48,"byteOffset":220320,"target":34962},{"buffer":0,"byteLength":48,"byteOffset":220368,"target":34962},{"buffer":0,"byteLength":32,"byteOffset":220416,"target":34962},{"buffer":0,"byteLength":126,"byteOffset":220448,"target":34963},{"buffer":0,"byteLength":528,"byteOffset":220576,"target":34962},{"buffer":0,"byteLength":528,"byteOffset":221104,"target":34962},{"buffer":0,"byteLength":352,"byteOffset":221632,"target":34962},{"buffer":0,"byteLength":1032,"byteOffset":221984,"target":34963},{"buffer":0,"byteLength":3168,"byteOffset":223016,"target":34962},{"buffer":0,"byteLength":3168,"byteOffset":226184,"target":34962},{"buffer":0,"byteLength":2112,"byteOffset":229352,"target":34962},{"buffer":0,"byteLength":56208,"byteOffset":231464,"target":34963},{"buffer":0,"byteLength":279960,"byteOffset":287672,"target":34962},{"buffer":0,"byteLength":279960,"byteOffset":567632,"target":34962},{"buffer":0,"byteLength":186640,"byteOffset":847592,"target":34962},{"buffer":0,"byteLength":8382,"byteOffset":1034232,"target":34963},{"buffer":0,"byteLength":50052,"byteOffset":1042616,"target":34962},{"buffer":0,"byteLength":50052,"byteOffset":1092668,"target":34962},{"buffer":0,"byteLength":33368,"byteOffset":1142720,"target":34962},{"buffer":0,"byteLength":34152,"byteOffset":1176088,"target":34963},{"buffer":0,"byteLength":169644,"byteOffset":1210240,"target":34962},{"buffer":0,"byteLength":169644,"byteOffset":1379884,"target":34962},{"buffer":0,"byteLength":113096,"byteOffset":1549528,"target":34962}],"buffers":[{"byteLength":1662624,"uri":"asaratianm.bin"}],"cameras":[{"extensions":{"S8S_v3d_camera":{"controls":"ORBIT","enablePan":true,"moveSpeed":1.0,"orbitMaxDistance":99.0,"orbitMaxPolarAngle":3.1415927410125732,"orbitMaxZoom":100.0,"orbitMinDistance":0.0,"orbitMinPolarAngle":0.0,"orbitMinZoom":0.009999999776482582,"orbitTarget":[0.0,0.0,-0.0],"rotateSpeed":1.0,"viewportFitInitialAspect":1.7777777777777777,"viewportFitType":"AUTO"}},"name":"Camera","perspective":{"aspectRatio":1.7777777777777777,"yfov":0.5033799372418416,"zfar":100.0,"znear":0.10000000149011612},"type":"perspective"}],"extensions":{"S8S_v3d_lights":{"lights":[{"color":[1.0,1.0,1.0],"decay":2,"distance":10.00000011175871,"intensity":100.0,"name":"Lamp","power":100.0,"profile":"blender","shadow":{"bias":-0.0018,"cameraFar":10.00000011175871,"cameraFov":0,"cameraNear":0.05000000074505806,"enabled":true,"expBias":2.5,"mapSize":512,"radius":1.0,"slopeScaledBias":2.5},"type":"point"}]}},"extensionsUsed":["S8S_v3d_texture","S8S_v3d_materials","S8S_v3d_camera","S8S_v3d_lights","S8S_v3d_mesh","S8S_v3d_node","S8S_v3d_scene"],"images":[{"uri":"obj_popup.png"},{"uri":"obj_spot01.png"},{"uri":"obj_spot02.png"},{"uri":"cover.png"},{"uri":"environment.hdr"}],"materials":[{"alphaMode":"OPAQUE","name":"cube_material","pbrMetallicRoughness":{"baseColorFactor":[0.033669959753751755,0.033669959753751755,0.033669959753751755,1.0],"roughnessFactor":0.4000000059604645}},{"alphaMode":"OPAQUE","doubleSided":true,"extensions":{"S8S_v3d_materials":{"gtaoVisible":true,"materialIndex":0,"nodeGraph":{"edges":[{"fromNode":1,"fromOutput":0,"toInput":0,"toNode":0}],"nodes":[{"inputs":[[0,0,0,0],[0,0,0,0],[0.0,0.0,0.0],0.0],"is_active_output":true,"name":"Material Output","outputs":[],"type":"OUTPUT_MATERIAL_BL"},{"inputs":[[1.0,0.6145505309104919,0.055171653628349304,1.0],1.0,0.0,1.4500000476837158,1.0,[0.0,0.0,0.0],0.0,0.0,[1.0,1.0,1.0],0.05000000074505806,1.399999976158142,0.0,0.5,[1.0,1.0,1.0,1.0],0.0,0.0,[0.0,0.0,0.0],0.0,0.0,0.029999999329447746,1.5,[1.0,1.0,1.0,1.0],[0.0,0.0,0.0],0.0,0.5,[1.0,1.0,1.0,1.0],[0.0,0.0,0.0,1.0],1.0,0.0,1.3300000429153442],"is_active_output":false,"name":"Principled BSDF","outputs":[[0,0,0,0]],"type":"BSDF_PRINCIPLED_BL"}]},"renderSide":"DOUBLE"}},"name":"cube_material.002"},{"alphaMode":"OPAQUE","name":"cube_material.003","pbrMetallicRoughness":{"baseColorFactor":[0.033669959753751755,0.033669959753751755,0.033669959753751755,1.0],"roughnessFactor":0.4000000059604645}},{"alphaMode":"OPAQUE","name":"cube_material.004","pbrMetallicRoughness":{"baseColorFactor":[0.033669959753751755,0.033669959753751755,0.033669959753751755,1.0],"roughnessFactor":0.4000000059604645}},{"alphaMode":"OPAQUE","doubleSided":true,"extensions":{"S8S_v3d_materials":{"gtaoVisible":true,"materialIndex":0,"nodeGraph":{"edges":[{"fromNode":1,"fromOutput":0,"toInput":0,"toNode":0}],"nodes":[{"inputs":[[0,0,0,0],[0,0,0,0],[0.0,0.0,0.0],0.0],"is_active_output":true,"name":"Material Output","outputs":[],"type":"OUTPUT_MATERIAL_BL"},{"inputs":[[1.0,0.6145505309104919,0.055171653628349304,1.0],1.0,0.0,1.4500000476837158,1.0,[0.0,0.0,0.0],0.0,0.0,[1.0,1.0,1.0],0.05000000074505806,1.399999976158142,0.0,0.5,[1.0,1.0,1.0,1.0],0.0,0.0,[0.0,0.0,0.0],0.0,0.0,0.029999999329447746,1.5,[1.0,1.0,1.0,1.0],[0.0,0.0,0.0],0.0,0.5,[1.0,1.0,1.0,1.0],[0.0,0.0,0.0,1.0],1.0,0.0,1.3300000429153442],"is_active_output":false,"name":"Principled BSDF","outputs":[[0,0,0,0]],"type":"BSDF_PRINCIPLED_BL"}]},"renderSide":"DOUBLE"}},"name":"cube_material.005"},{"alphaMode":"OPAQUE","name":"cube_material.006","pbrMetallicRoughness":{"baseColorFactor":[0.033669959753751755,0.033669959753751755,0.033669959753751755,1.0],"roughnessFactor":0.4000000059604645}},{"alphaMode":"BLEND","extensions":{"S8S_v3d_materials":{"gtaoVisible":true,"materialIndex":0,"nodeGraph":{"edges":[{"fromNode":4,"fromOutput":6,"toInput":0,"toNode":2},{"fromNode":1,"fromOutput":0,"toInput":1,"toNode":2},{"fromNode":0,"fromOutput":0,"toInput":2,"toNode":2},{"fromNode":2,"fromOutput":0,"toInput":0,"toNode":3}],"nodes":[{"inputs":[[1.0,1.0,1.0,1.0]],"is_active_output":false,"name":"Transparent BSDF","outputs":[[0,0,0,0]],"type":"BSDF_TRANSPARENT_BL"},{"inputs":[[0.800000011920929,0.800000011920929,0.800000011920929,1.0],0.0,0.20000000298023224,1.4500000476837158,1.0,[0.0,0.0,0.0],0.0,0.0,[1.0,0.20000000298023224,0.10000000149011612],0.05000000074505806,1.399999976158142,0.0,0.5,[1.0,1.0,1.0,1.0],0.0,0.0,[0.0,0.0,0.0],0.418181836605072,0.0,0.029999999329447746,1.5,[1.0,1.0,1.0,1.0],[0.0,0.0,0.0],0.0,0.5,[1.0,1.0,1.0,1.0],[0.9132529497146606,0.6866554021835327,0.12742865085601807,1.0],3.0,0.0,1.3300000429153442],"is_active_output":false,"name":"Principled BSDF","outputs":[[0,0,0,0]],"type":"BSDF_PRINCIPLED_BL"},{"inputs":[0.5,[0,0,0,0],[0,0,0,0]],"is_active_output":false,"name":"Mix Shader.001","outputs":[[0,0,0,0]],"type":"MIX_SHADER_BL"},{"inputs":[[0,0,0,0],[0,0,0,0],[0.0,0.0,0.0],0.0],"is_active_output":true,"name":"Material Output","outputs":[],"type":"OUTPUT_MATERIAL_BL"},{"inputs":[],"is_active_output":false,"name":"Geometry","outputs":[[0.0,0.0,0.0],[0.0,0.0,0.0],[0.0,0.0,0.0],[0.0,0.0,0.0],[0.0,0.0,0.0],[0.0,0.0,0.0],0.0,0.0,0.0],"type":"NEW_GEOMETRY_BL"}]}}},"name":"light"},{"alphaMode":"BLEND","extensions":{"S8S_v3d_materials":{"gtaoVisible":true,"materialIndex":0,"nodeGraph":{"edges":[{"fromNode":0,"fromOutput":0,"toInput":0,"toNode":1},{"fromNode":2,"fromOutput":0,"toInput":0,"toNode":0},{"fromNode":2,"fromOutput":1,"toInput":4,"toNode":0}],"nodes":[{"inputs":[[0.800000011920929,0.800000011920929,0.800000011920929,1.0],0.0,0.5,1.4500000476837158,1.0,[0.0,0.0,0.0],0.0,0.0,[1.0,0.20000000298023224,0.10000000149011612],0.05000000074505806,1.399999976158142,0.0,0.5,[1.0,1.0,1.0,1.0],0.0,0.0,[0.0,0.0,0.0],0.0,0.0,0.029999999329447746,1.5,[1.0,1.0,1.0,1.0],[0.0,0.0,0.0],0.0,0.5,[1.0,1.0,1.0,1.0],[1.0,1.0,1.0,1.0],0.0,0.0,1.3300000429153442],"is_active_output":false,"name":"Principled BSDF","outputs":[[0,0,0,0]],"type":"BSDF_PRINCIPLED_BL"},{"inputs":[[0,0,0,0],[0,0,0,0],[0.0,0.0,0.0],0.0],"is_active_output":true,"name":"Material Output","outputs":[],"type":"OUTPUT_MATERIAL_BL"},{"alphaMode":"STRAIGHT","inputs":[[0.0,0.0,0.0]],"is_active_output":false,"name":"Image Texture","outputs":[[0.0,0.0,0.0,0.0],0.0],"projection":"FLAT","projectionBlend":0.0,"texture":0,"type":"TEX_IMAGE_BL"}]}}},"name":"Mat_Info"},{"alphaMode":"OPAQUE","extensions":{"S8S_v3d_materials":{"gtaoVisible":true,"materialIndex":0,"nodeGraph":{"edges":[{"fromNode":0,"fromOutput":0,"toInput":0,"toNode":1}],"nodes":[{"inputs":[[0.005153174512088299,0.005153174512088299,0.005153174512088299,1.0],0.0,1.0,1.4500000476837158,1.0,[0.0,0.0,0.0],0.0,0.0,[1.0,0.20000000298023224,0.10000000149011612],0.05000000074505806,1.399999976158142,0.0,0.5,[1.0,1.0,1.0,1.0],0.0,0.0,[0.0,0.0,0.0],0.0,0.0,0.029999999329447746,1.5,[1.0,1.0,1.0,1.0],[0.0,0.0,0.0],0.0,0.5,[1.0,1.0,1.0,1.0],[1.0,1.0,1.0,1.0],0.0,0.0,1.3300000429153442],"is_active_output":false,"name":"Principled BSDF","outputs":[[0,0,0,0]],"type":"BSDF_PRINCIPLED_BL"},{"inputs":[[0,0,0,0],[0,0,0,0],[0.0,0.0,0.0],0.0],"is_active_output":true,"name":"Material Output","outputs":[],"type":"OUTPUT_MATERIAL_BL"}]}}},"name":"Mat_obj_prodBack"},{"alphaMode":"BLEND","extensions":{"S8S_v3d_materials":{"gtaoVisible":true,"materialIndex":0,"nodeGraph":{"edges":[{"fromNode":0,"fromOutput":0,"toInput":0,"toNode":1},{"fromNode":2,"fromOutput":0,"toInput":0,"toNode":0},{"fromNode":2,"fromOutput":1,"toInput":4,"toNode":0}],"nodes":[{"inputs":[[0.800000011920929,0.800000011920929,0.800000011920929,1.0],0.0,0.5,1.4500000476837158,1.0,[0.0,0.0,0.0],0.0,0.0,[1.0,0.20000000298023224,0.10000000149011612],0.05000000074505806,1.399999976158142,0.0,0.5,[1.0,1.0,1.0,1.0],0.0,0.0,[0.0,0.0,0.0],0.0,0.0,0.029999999329447746,1.5,[1.0,1.0,1.0,1.0],[0.0,0.0,0.0],0.0,0.5,[1.0,1.0,1.0,1.0],[1.0,1.0,1.0,1.0],0.0,0.0,1.3300000429153442],"is_active_output":false,"name":"Principled BSDF","outputs":[[0,0,0,0]],"type":"BSDF_PRINCIPLED_BL"},{"inputs":[[0,0,0,0],[0,0,0,0],[0.0,0.0,0.0],0.0],"is_active_output":true,"name":"Material Output","outputs":[],"type":"OUTPUT_MATERIAL_BL"},{"alphaMode":"STRAIGHT","inputs":[[0.0,0.0,0.0]],"is_active_output":false,"name":"Image Texture","outputs":[[0.0,0.0,0.0,0.0],0.0],"projection":"FLAT","projectionBlend":0.0,"texture":1,"type":"TEX_IMAGE_BL"}]}}},"name":"Mat_popup01"},{"alphaMode":"BLEND","extensions":{"S8S_v3d_materials":{"gtaoVisible":true,"materialIndex":0,"nodeGraph":{"edges":[{"fromNode":0,"fromOutput":0,"toInput":0,"toNode":1},{"fromNode":2,"fromOutput":0,"toInput":0,"toNode":0},{"fromNode":2,"fromOutput":1,"toInput":4,"toNode":0}],"nodes":[{"inputs":[[0.800000011920929,0.800000011920929,0.800000011920929,1.0],0.0,0.5,1.4500000476837158,1.0,[0.0,0.0,0.0],0.0,0.0,[1.0,0.20000000298023224,0.10000000149011612],0.05000000074505806,1.399999976158142,0.0,0.5,[1.0,1.0,1.0,1.0],0.0,0.0,[0.0,0.0,0.0],0.0,0.0,0.029999999329447746,1.5,[1.0,1.0,1.0,1.0],[0.0,0.0,0.0],0.0,0.5,[1.0,1.0,1.0,1.0],[1.0,1.0,1.0,1.0],0.0,0.0,1.3300000429153442],"is_active_output":false,"name":"Principled BSDF","outputs":[[0,0,0,0]],"type":"BSDF_PRINCIPLED_BL"},{"inputs":[[0,0,0,0],[0,0,0,0],[0.0,0.0,0.0],0.0],"is_active_output":true,"name":"Material Output","outputs":[],"type":"OUTPUT_MATERIAL_BL"},{"alphaMode":"STRAIGHT","inputs":[[0.0,0.0,0.0]],"is_active_output":false,"name":"Image Texture","outputs":[[0.0,0.0,0.0,0.0],0.0],"projection":"FLAT","projectionBlend":0.0,"texture":2,"type":"TEX_IMAGE_BL"}]}}},"name":"Mat_popup01.001"},{"alphaMode":"OPAQUE","name":"White","pbrMetallicRoughness":{"baseColorFactor":[0.800000011920929,0.800000011920929,0.800000011920929,1.0],"baseColorTexture":{"index":3},"metallicFactor":0.0,"roughnessFactor":0.0}},{"alphaMode":"OPAQUE","extensions":{"S8S_v3d_materials":{"gtaoVisible":true,"materialIndex":0,"nodeGraph":{"edges":[{"fromNode":0,"fromOutput":0,"toInput":0,"toNode":1},{"fromNode":4,"fromOutput":0,"toInput":6,"toNode":2},{"fromNode":3,"fromOutput":0,"toInput":0,"toNode":2},{"fromNode":2,"fromOutput":2,"toInput":0,"toNode":0}],"nodes":[{"inputs":[[0.05087608844041824,0.05087608844041824,0.05087608844041824,1.0],1.0],"is_active_output":false,"name":"Background","outputs":[[0,0,0,0]],"type":"BACKGROUND_BL"},{"inputs":[[0,0,0,0],[0,0,0,0]],"is_active_output":true,"name":"World Output","outputs":[],"type":"OUTPUT_WORLD_BL"},{"blendType":"MIX","clampFactor":true,"clampResult":false,"dataType":"RGBA","factorMode":"UNIFORM","inputs":[0.5,[0.5,0.5,0.5],0.0,0.0,[0.0,0.0,0.0],[0.0,0.0,0.0],[0.5,0.5,0.5,1.0],[0.05126946419477463,0.05126946419477463,0.05126946419477463,1.0],0,0],"is_active_output":false,"name":"Mix","outputs":[0.0,[0.0,0.0,0.0],[0.0,0.0,0.0,0.0],0],"type":"MIX_BL"},{"inputs":[],"is_active_output":false,"name":"Light Path","outputs":[0.0,0.0,0.0,0.0,0.0,0.0,0.0,0.0,0.0,0.0,0.0,0.0,0.0,0.0,0.0],"type":"LIGHT_PATH_BL"},{"inputs":[[0.0,0.0,0.0]],"is_active_output":false,"name":"Environment Texture","outputs":[[0.0,0.0,0.0,0.0]],"projection":"EQUIRECTANGULAR","texture":4,"type":"TEX_ENVIRONMENT_BL"}]}}},"name":"Verge3D_Environment_World"}],"meshes":[{"extensions":{"S8S_v3d_mesh":{"colorLayers":{},"uvLayers":{"UVMap":"TEXCOORD_0"}}},"name":"badge_new","primitives":[{"attributes":{"NORMAL":2,"POSITION":1,"TEXCOORD_0":3},"indices":0,"material":9,"mode":4}]},{"extensions":{"S8S_v3d_mesh":{"colorLayers":{},"uvLayers":{"UVMap":"TEXCOORD_0"}}},"name":"badge_new.001","primitives":[{"attributes":{"NORMAL":6,"POSITION":5,"TEXCOORD_0":7},"indices":4,"material":10,"mode":4}]},{"extensions":{"S8S_v3d_mesh":{"colorLayers":{},"uvLayers":{}}},"name":"Cylinder.001","primitives":[{"attributes":{"NORMAL":10,"POSITION":9,"TEXCOORD_0":11},"indices":8,"material":0,"mode":4}]},{"extensions":{"S8S_v3d_mesh":{"colorLayers":{},"uvLayers":{"UVMap":"TEXCOORD_0"}}},"name":"Cylinder.003","primitives":[{"attributes":{"NORMAL":14,"POSITION":13,"TEXCOORD_0":15},"indices":12,"material":6,"mode":4}]},{"extensions":{"S8S_v3d_mesh":{"colorLayers":{},"uvLayers":{"UVMap":"TEXCOORD_0"}}},"name":"Cylinder.004","primitives":[{"attributes":{"NORMAL":18,"POSITION":17,"TEXCOORD_0":19},"indices":16,"material":1,"mode":4}]},{"extensions":{"S8S_v3d_mesh":{"colorLayers":{},"uvLayers":{}}},"name":"Cylinder.005","primitives":[{"attributes":{"NORMAL":22,"POSITION":21,"TEXCOORD_0":23},"indices":20,"material":2,"mode":4}]},{"extensions":{"S8S_v3d_mesh":{"colorLayers":{},"uvLayers":{}}},"name":"Icosphere.001","primitives":[{"attributes":{"NORMAL":26,"POSITION":25,"TEXCOORD_0":27},"indices":24,"material":5,"mode":4}]},{"extensions":{"S8S_v3d_mesh":{"colorLayers":{},"uvLayers":{"UVMap":"TEXCOORD_0"}}},"name":"Plane.005","primitives":[{"attributes":{"NORMAL":30,"POSITION":29,"TEXCOORD_0":31},"indices":28,"material":7,"mode":4}]},{"extensions":{"S8S_v3d_mesh":{"colorLayers":{},"uvLayers":{}}},"name":"Plane.040","primitives":[{"attributes":{"NORMAL":34,"POSITION":33,"TEXCOORD_0":35},"indices":32,"material":11,"mode":4}]},{"extensions":{"S8S_v3d_mesh":{"colorLayers":{},"uvLayers":{"UVMap":"TEXCOORD_0"}}},"name":"Plane.041","primitives":[{"attributes":{"NORMAL":38,"POSITION":37,"TEXCOORD_0":39},"indices":36,"material":8,"mode":4}]},{"extensions":{"S8S_v3d_mesh":{"colorLayers":{},"uvLayers":{}}},"name":"Text.001","primitives":[{"attributes":{"NORMAL":42,"POSITION":41,"TEXCOORD_0":43},"indices":40,"material":3,"mode":4}]},{"extensions":{"S8S_v3d_mesh":{"colorLayers":{},"uvLayers":{"UVMap":"TEXCOORD_0"}}},"name":"Text.002","primitives":[{"attributes":{"NORMAL":46,"POSITION":45,"TEXCOORD_0":47},"indices":44,"material":4,"mode":4}]},{"extensions":{"S8S_v3d_mesh":{"colorLayers":{},"uvLayers":{"UVMap":"TEXCOORD_0"}}},"name":"Text.016","primitives":[{"attributes":{"NORMAL":50,"POSITION":49,"TEXCOORD_0":51},"indices":48,"material":6,"mode":4}]}],"nodes":[{"extensions":{"S8S_v3d_node":{"frustumCulling":true,"groupNames":[],"renderOrder":0,"useCastShadows":true,"useShadows":true}},"mesh":7,"name":"obj_Popup","rotation":[0.7071067690849304,0.0,-0.0,0.7071067690849304],"scale":[0.27969396114349365,0.1996828317642212,0.1996828317642212],"translation":[0.001290000043809414,0.28052660822868347,0.007513000164180994]},{"extensions":{"S8S_v3d_node":{"frustumCulling":true,"groupNames":[],"renderOrder":0,"useCastShadows":true,"useShadows":true}},"mesh":3,"name":"BaseStarTop_Light","scale":[0.4396541118621826,0.008605781011283398,0.4396541118621826],"translation":[0.0,0.031093405559659004,-0.0006992904818616807]},{"extensions":{"S8S_v3d_node":{"frustumCulling":true,"groupNames":[],"renderOrder":0,"useCastShadows":true,"useShadows":true}},"mesh":2,"name":"BaseStarTop","scale":[0.4396541118621826,0.008605781011283398,0.4396541118621826],"translation":[0.0,0.009822881780564785,-0.000640581944026053]},{"extensions":{"S8S_v3d_node":{"frustumCulling":true,"groupNames":[],"renderOrder":0,"useCastShadows":true,"useShadows":true}},"mesh":12,"name":"txt_Down_Light","rotation":[0.6800031661987305,-0.19389593601226807,0.19389593601226807,0.68000328540802],"scale":[0.11015964299440384,0.11015964299440384,0.11015963554382324],"translation":[0.0,0.010789000429213047,-0.0]},{"extensions":{"S8S_v3d_node":{"frustumCulling":true,"groupNames":[],"renderOrder":0,"useCastShadows":true,"useShadows":true}},"mesh":1,"name":"obj_Spot02","rotation":[0.7071067690849304,0.0,-0.0,0.7071067094802856],"scale":[0.12247216701507568,0.12247216701507568,0.12247216701507568],"translation":[0.12453427165746689,0.11527706682682037,0.007513000164180994]},{"extensions":{"S8S_v3d_node":{"frustumCulling":true,"groupNames":[],"renderOrder":0,"useCastShadows":true,"useShadows":true}},"mesh":0,"name":"obj_Spot01","rotation":[0.7071067690849304,0.0,-0.0,0.7071067094802856],"scale":[0.12247216701507568,0.12247216701507568,0.12247216701507568],"translation":[0.12453427165746689,0.25428828597068787,0.007513000164180994]},{"extensions":{"S8S_v3d_node":{"frustumCulling":true,"groupNames":[],"renderOrder":0,"useCastShadows":true,"useShadows":true}},"mesh":8,"name":"obj_prodFront","rotation":[0.7071067690849304,0.0,-0.0,0.7071067690849304],"scale":[0.0925000011920929,1.0,0.11999999731779099],"translation":[0.0,0.15091188251972198,0.002492999890819192]},{"extensions":{"S8S_v3d_node":{"frustumCulling":true,"groupNames":[],"renderOrder":0,"useCastShadows":true,"useShadows":true}},"mesh":9,"name":"obj_prodBack","rotation":[0.7071067690849304,0.0,-0.0,0.7071067690849304],"scale":[0.0925000011920929,1.0,0.11999999731779099],"translation":[0.0,0.15091188251972198,-9.853143637883477e-06]},{"extensions":{"S8S_v3d_node":{"frustumCulling":true,"groupNames":[],"renderOrder":0,"useCastShadows":true,"useShadows":true}},"mesh":4,"name":"obj_BaseStar","scale":[0.45117488503456116,0.00883129145950079,0.45117488503456116],"translation":[0.0,0.005614804103970528,-0.0006405821768566966]},{"extensions":{"S8S_v3d_node":{"frustumCulling":true,"groupNames":[],"renderOrder":0,"useCastShadows":true,"useShadows":true}},"mesh":5,"name":"BaseStarBottom","scale":[0.4396541118621826,0.008605781011283398,0.4396541118621826],"translation":[-1.1978411497668344e-19,-0.0419405996799469,-0.000640581944026053]},{"camera":0,"extensions":{"S8S_v3d_node":{"frustumCulling":true,"groupNames":["Collection 1"],"renderOrder":0}},"name":"Camera","rotation":[-0.010095305740833282,0.0,0.0,0.999949038028717],"scale":[1.0,0.9999999403953552,0.9999999403953552],"translation":[0.0,0.0,2.559812307357788]},{"extensions":{"S8S_v3d_lights":{"light":0},"S8S_v3d_node":{"frustumCulling":true,"groupNames":["Collection 1"],"renderOrder":0}},"name":"Lamp","rotation":[-0.28416627645492554,0.7269423007965088,0.34203392267227173,0.5232754945755005],"scale":[1.0,0.9999998807907104,0.9999998807907104],"translation":[1.146303415298462,1.4602618217468262,-1.0054539442062378]},{"extensions":{"S8S_v3d_node":{"frustumCulling":true,"groupNames":[],"renderOrder":0,"useCastShadows":true,"useShadows":true}},"mesh":11,"name":"txt_Down","rotation":[0.7071067690849304,0.0,-0.0,0.7071067690849304],"scale":[0.1121305301785469,0.1121305301785469,0.1121305301785469],"translation":[3.725290298461914e-09,0.010789000429213047,-0.0]},{"extensions":{"S8S_v3d_node":{"frustumCulling":true,"groupNames":[],"renderOrder":0,"useCastShadows":true,"useShadows":true}},"mesh":6,"name":"obj_Environment","scale":[3.7914793491363525,3.762206554412842,3.78434157371521],"translation":[0.0,0.010539054870605469,-0.0501190684735775]},{"extensions":{"S8S_v3d_node":{"frustumCulling":true,"groupNames":[],"renderOrder":0,"useCastShadows":true,"useShadows":true}},"mesh":10,"name":"txt_F*king","rotation":[3.0908619663705394e-08,-0.7071067690849304,0.7071067690849304,3.0908619663705394e-08],"scale":[0.24606645107269287,0.24606645107269287,0.24606645107269287],"translation":[-2.8564209184487277e-18,-0.2850677967071533,-2.842170943040401e-14]}],"samplers":[{}],"scene":0,"scenes":[{"extensions":{"S8S_v3d_scene":{"aaMethod":"AUTO","iblEnvironmentMode":"PMREM","physicallyCorrectLights":true,"pmremMaxTileSize":256,"shadowMap":{"esmDistanceScale":1.0,"renderReverseSided":false,"renderSingleSided":true,"type":"PCFPOISSON"},"worldMaterial":12}},"extras":{"animFrameRate":24,"coordSystem":"Z_UP_RIGHT"},"name":"Scene","nodes":[2,1,3,0,4,5,6,7,8,9,14,12,13,11,10]}],"textures":[{"extensions":{"S8S_v3d_texture":{"colorSpace":"srgb"}},"name":"obj_popup.png.001","sampler":0,"source":0},{"extensions":{"S8S_v3d_texture":{"colorSpace":"srgb"}},"name":"obj_spot01.png.001","sampler":0,"source":1},{"extensions":{"S8S_v3d_texture":{"colorSpace":"srgb"}},"name":"obj_spot02.png.001","sampler":0,"source":2},{"extensions":{"S8S_v3d_texture":{"colorSpace":"srgb"}},"name":"cover.png.001","sampler":0,"source":3},{"extensions":{"S8S_v3d_texture":{"colorSpace":"linear rec.709","source":4}},"name":"environment.hdr","sampler":0}]}
